<svg width="31" height="31" viewBox="0 0 31 31" fill="none" xmlns="http://www.w3.org/2000/svg">
<path d="M16.0973 30.2934H14.1961C12.6584 30.2934 11.4073 29.0424 11.4073 27.5047V26.8615C10.7536 26.6526 10.1184 26.389 9.50823 26.0732L9.05241 26.529C7.94841 27.6344 6.17998 27.602 5.10805 26.5286L3.76431 25.185C2.69049 24.1123 2.65961 22.3445 3.76467 21.2406L4.22013 20.7851C3.90436 20.1749 3.64077 19.5399 3.43185 18.8861H2.78871C1.25108 18.8861 0 17.635 0 16.0973V14.1961C0 12.6584 1.25108 11.4074 2.78877 11.4074H3.43191C3.64083 10.7536 3.90442 10.1185 4.22019 9.50829L3.76437 9.05252C2.65996 7.9493 2.69043 6.18128 3.76473 5.10817L5.10858 3.76437C6.18299 2.68848 7.95102 2.66162 9.05288 3.76473L9.50829 4.22013C10.1185 3.90442 10.7536 3.64077 11.4074 3.43185V2.78871C11.4074 1.25102 12.6584 0 14.1961 0H16.0973C17.635 0 18.8861 1.25102 18.8861 2.78871V3.43191C19.5398 3.64077 20.1749 3.90442 20.7851 4.22019L21.241 3.76437C22.3449 2.65902 24.1134 2.69144 25.1853 3.76479L26.529 5.10846C27.6029 6.1811 27.6337 7.94895 26.5287 9.05282L26.0732 9.50829C26.389 10.1185 26.6526 10.7535 26.8615 11.4074H27.5046C29.0423 11.4074 30.2934 12.6584 30.2934 14.1961V16.0973C30.2934 17.635 29.0423 18.8861 27.5046 18.8861H26.8615C26.6526 19.5398 26.389 20.1749 26.0732 20.7851L26.529 21.241C27.6335 22.3442 27.603 24.1122 26.5287 25.1853L25.1848 26.5291C24.1104 27.605 22.3424 27.6319 21.2405 26.5288L20.7851 26.0733C20.1749 26.3891 19.5398 26.6527 18.8861 26.8616V27.5048C18.8861 29.0424 17.635 30.2934 16.0973 30.2934ZM9.80495 24.2093C10.6526 24.7106 11.565 25.0893 12.5166 25.3349C12.9085 25.4361 13.1824 25.7895 13.1824 26.1943V27.5047C13.1824 28.0637 13.6372 28.5184 14.1961 28.5184H16.0973C16.6563 28.5184 17.1111 28.0637 17.1111 27.5047V26.1943C17.1111 25.7895 17.3849 25.4361 17.7769 25.3349C18.7285 25.0893 19.6408 24.7106 20.4885 24.2093C20.8373 24.003 21.2814 24.0591 21.5679 24.3457L22.4961 25.2739C22.8963 25.6746 23.539 25.6653 23.9294 25.2744L25.2741 23.9297C25.6635 23.5408 25.6765 22.898 25.2744 22.4964L24.3458 21.5678C24.0593 21.2813 24.0032 20.8372 24.2094 20.4885C24.7107 19.6408 25.0894 18.7285 25.335 17.7768C25.4362 17.3849 25.7896 17.1111 26.1943 17.1111H27.5047C28.0637 17.1111 28.5185 16.6563 28.5185 16.0974V14.1961C28.5185 13.6372 28.0637 13.1824 27.5047 13.1824H26.1943C25.7896 13.1824 25.4362 12.9086 25.335 12.5167C25.0894 11.565 24.7107 10.6527 24.2094 9.80507C24.0032 9.45634 24.0593 9.01223 24.3458 8.72575L25.2741 7.79748C25.6753 7.39668 25.6649 6.75413 25.2744 6.36416L23.9298 5.0196C23.5401 4.62933 22.8973 4.61791 22.4965 5.01924L21.568 5.94786C21.2815 6.23441 20.8373 6.2905 20.4886 6.08424C19.6409 5.58292 18.7285 5.2042 17.7769 4.95859C17.385 4.85748 17.1112 4.50402 17.1112 4.09926V2.78871C17.1112 2.22976 16.6563 1.775 16.0974 1.775H14.1962C13.6372 1.775 13.1824 2.22976 13.1824 2.78871V4.09914C13.1824 4.5039 12.9086 4.85736 12.5167 4.95848C11.565 5.20408 10.6527 5.5828 9.80501 6.08413C9.45616 6.29032 9.01211 6.23423 8.72563 5.94775L7.79742 5.01948C7.39721 4.6188 6.75449 4.62809 6.36416 5.01906L5.01948 6.36369C4.63004 6.75265 4.61702 7.39538 5.01912 7.797L5.94775 8.72563C6.23423 9.01211 6.29032 9.45622 6.08413 9.80495C5.5828 10.6526 5.20414 11.5649 4.95854 12.5166C4.85736 12.9085 4.5039 13.1823 4.0992 13.1823H2.78877C2.22982 13.1824 1.775 13.6371 1.775 14.1961V16.0973C1.775 16.6563 2.22982 17.111 2.78877 17.111H4.09914C4.5039 17.111 4.8573 17.3849 4.95848 17.7767C5.20408 18.7284 5.5828 19.6408 6.08407 20.4884C6.29026 20.8371 6.23417 21.2812 5.94769 21.5677L5.01942 22.496C4.61815 22.8968 4.62862 23.5393 5.01906 23.9293L6.36363 25.2739C6.75336 25.6641 7.39615 25.6756 7.79695 25.2742L8.72551 24.3456C8.93662 24.1346 9.37581 23.9555 9.80495 24.2093Z" fill="white"/>
<path d="M15.1466 21.7379C11.5122 21.7379 8.55542 18.7811 8.55542 15.1467C8.55542 11.5123 11.5122 8.55551 15.1466 8.55551C18.781 8.55551 21.7378 11.5123 21.7378 15.1467C21.7378 18.7811 18.781 21.7379 15.1466 21.7379ZM15.1466 10.3305C12.4909 10.3305 10.3304 12.4911 10.3304 15.1467C10.3304 17.8023 12.491 19.9629 15.1466 19.9629C17.8022 19.9629 19.9628 17.8023 19.9628 15.1467C19.9628 12.4911 17.8023 10.3305 15.1466 10.3305Z" fill="white"/>
</svg>
