<svg width="18" height="18" viewBox="0 0 18 18" fill="none" xmlns="http://www.w3.org/2000/svg">
<path d="M4 1.00012H2C1.44772 1.00012 1 1.44784 1 2.00012V16.0001C1 16.5524 1.44772 17.0001 2 17.0001H4C4.55228 17.0001 5 16.5524 5 16.0001V2.00012C5 1.44784 4.55228 1.00012 4 1.00012Z" stroke="#FFFFFF" stroke-width="1.5" stroke-linecap="round" stroke-linejoin="round"/>
<path d="M8 1.00012H6C5.44772 1.00012 5 1.44784 5 2.00012V16.0001C5 16.5524 5.44772 17.0001 6 17.0001H8C8.55228 17.0001 9 16.5524 9 16.0001V2.00012C9 1.44784 8.55228 1.00012 8 1.00012Z" stroke="#FFFFFF" stroke-width="1.5" stroke-linecap="round" stroke-linejoin="round"/>
<path d="M1 5.00012H5" stroke="#FFFFFF" stroke-width="1.5" stroke-linecap="round" stroke-linejoin="round"/>
<path d="M5 13.0001H9" stroke="#FFFFFF" stroke-width="1.5" stroke-linecap="round" stroke-linejoin="round"/>
<path d="M9.80302 1.56016L11.987 1.03016C12.549 0.895165 13.12 1.22016 13.269 1.76216L16.964 15.1802C17.0292 15.4258 17.0003 15.687 16.8831 15.9124C16.7658 16.1379 16.5686 16.3115 16.33 16.3992L16.197 16.4402L14.013 16.9702C13.451 17.1052 12.88 16.7802 12.731 16.2382L9.03602 2.82016C8.97083 2.57451 8.9997 2.31338 9.11697 2.0879C9.23424 1.86242 9.43146 1.68884 9.67002 1.60116L9.80302 1.56016V1.56016Z" stroke="#FFFFFF" stroke-width="1.5" stroke-linecap="round" stroke-linejoin="round"/>
<path d="M10 6.00012L14 5.00012" stroke="#FFFFFF" stroke-width="1.5" stroke-linecap="round" stroke-linejoin="round"/>
<path d="M12 13.0001L15.923 12.0201" stroke="#FFFFFF" stroke-width="1.5" stroke-linecap="round" stroke-linejoin="round"/>
</svg>
