<svg xmlns="http://www.w3.org/2000/svg" width="33" height="26" viewBox="0 0 33 26" fill="none">
  <path d="M30.5256 16.0176V7.3047L30.8873 7.19617C32.2778 6.77887 32.5696 6.07239 32.5696 5.55319C32.5696 5.03398 32.2777 4.3275 30.8873 3.91039L18.9891 0.3409C18.2563 0.121055 17.2959 0 16.2849 0C15.274 0 14.3136 0.121055 13.5806 0.3409L1.68249 3.91039C0.291918 4.3275 0 5.03398 0 5.55325C0 6.07246 0.291854 6.779 1.68243 7.19624L6.13232 8.53121V15.7244C6.13232 16.6176 6.71291 17.8757 9.47885 18.7977C11.3109 19.4084 13.728 19.7447 16.2848 19.7447C18.8416 19.7447 21.2587 19.4084 23.0907 18.7977C25.8567 17.8757 26.4373 16.6176 26.4373 15.7244V8.53127L28.6172 7.87727V16.0176C27.4306 16.4173 26.5731 17.5397 26.5731 18.8594V22.9475C26.5731 24.6008 27.9181 25.9458 29.5714 25.9458C31.2246 25.9458 32.5696 24.6008 32.5696 22.9475V18.8594C32.5697 17.5397 31.7123 16.4172 30.5256 16.0176ZM14.1289 2.16881C14.6808 2.00322 15.4666 1.90831 16.2849 1.90831C17.1032 1.90831 17.889 2.00322 18.4408 2.16874L29.7223 5.55325L25.2043 6.90871C25.2017 6.90953 25.1991 6.91023 25.1965 6.91106L18.4408 8.93782C17.8891 9.10334 17.1033 9.19825 16.285 9.19825C15.4667 9.19825 14.6808 9.10334 14.1291 8.93782L7.3734 6.91106C7.37079 6.91023 7.36825 6.90953 7.36564 6.90871L2.84762 5.55325L14.1289 2.16881ZM24.5291 13.2185C24.5291 15.8473 24.1826 16.4221 22.4874 16.9872C20.8448 17.5348 18.642 17.8363 16.2849 17.8363C13.9277 17.8363 11.7249 17.5348 10.0824 16.9872C8.38725 16.4221 8.04069 15.8473 8.04069 15.7243V9.10366L13.5806 10.7657C14.3135 10.9855 15.274 11.1066 16.2849 11.1066C17.2959 11.1066 18.2562 10.9855 18.9892 10.7657L24.5291 9.10366V13.2185ZM30.6613 22.9475C30.6613 23.5484 30.1724 24.0373 29.5715 24.0373C28.9705 24.0373 28.4816 23.5485 28.4816 22.9475V18.8593C28.4816 18.2583 28.9704 17.7693 29.5715 17.7693C30.1725 17.7693 30.6613 18.2583 30.6613 18.8593V22.9475Z" fill="white"/>
</svg>