<svg xmlns="http://www.w3.org/2000/svg" width="31" height="31" viewBox="0 0 31 31" fill="none">
  <path d="M29.4767 13.1762C29.476 13.1755 29.4753 13.1748 29.4746 13.1741L17.1173 0.817242C16.5905 0.290287 15.8903 0 15.1454 0C14.4005 0 13.7002 0.290056 13.1732 0.817011L0.822358 13.1676C0.818197 13.1718 0.814037 13.1762 0.809877 13.1803C-0.271767 14.2682 -0.269918 16.0333 0.815193 17.1184C1.31095 17.6144 1.96571 17.9017 2.66577 17.9317C2.6942 17.9345 2.72286 17.9359 2.75175 17.9359H3.24427V27.0298C3.24427 28.8293 4.70842 30.2934 6.50838 30.2934H11.343C11.8329 30.2934 12.2305 29.8961 12.2305 29.4059V22.2763C12.2305 21.4551 12.8984 20.7872 13.7196 20.7872H16.5711C17.3923 20.7872 18.0602 21.4551 18.0602 22.2763V29.4059C18.0602 29.8961 18.4575 30.2934 18.9477 30.2934H23.7823C25.5823 30.2934 27.0464 28.8293 27.0464 27.0298V17.9359H27.5031C28.2478 17.9359 28.9481 17.6458 29.4753 17.1189C30.5615 16.0319 30.562 14.2638 29.4767 13.1762V13.1762Z" fill="white"/>
</svg>