<svg width="31" height="31" viewBox="0 0 31 31" fill="none" xmlns="http://www.w3.org/2000/svg">
<path d="M21.4462 23.2879V25.6642C21.4462 28.2849 19.3143 30.4168 16.6936 30.4168H4.75263C2.13195 30.4168 0 28.2849 0 25.6642V4.75263C0 2.13195 2.13195 0 4.75263 0H16.6936C19.3143 0 21.4462 2.13195 21.4462 4.75263V7.12894C21.4462 7.78521 20.9143 8.3171 20.2581 8.3171C19.6018 8.3171 19.0699 7.78521 19.0699 7.12894V4.75263C19.0699 3.44241 18.0038 2.37631 16.6936 2.37631H4.75263C3.44241 2.37631 2.37631 3.44241 2.37631 4.75263V25.6642C2.37631 26.9744 3.44241 28.0405 4.75263 28.0405H16.6936C18.0038 28.0405 19.0699 26.9744 19.0699 25.6642V23.2879C19.0699 22.6316 19.6018 22.0997 20.2581 22.0997C20.9143 22.0997 21.4462 22.6316 21.4462 23.2879ZM29.5468 13.1674L26.8862 10.5068C26.4221 10.0427 25.6698 10.0427 25.2059 10.5068C24.7417 10.9707 24.7417 11.7231 25.2059 12.187L27.0983 14.0797H12.8321C12.1758 14.0797 11.6439 14.6115 11.6439 15.2678C11.6439 15.9241 12.1758 16.456 12.8321 16.456H27.0983L25.2059 18.3487C24.7417 18.8126 24.7417 19.5649 25.2059 20.0288C25.4379 20.2609 25.7419 20.3769 26.0459 20.3769C26.3502 20.3769 26.6542 20.2609 26.8862 20.0288L29.5468 17.3682C30.705 16.21 30.705 14.3256 29.5468 13.1674Z" fill="white"/>
</svg>
