<svg width="31" height="27" viewBox="0 0 31 27" fill="none" xmlns="http://www.w3.org/2000/svg">
<path d="M26.9722 0H3.2461C1.4562 0 0 1.4562 0 3.2461V18.8274C0 20.6173 1.4562 22.0735 3.2461 22.0735H10.89C10.9833 22.0735 11.072 22.1183 11.1275 22.1934L13.9163 25.9744C14.1958 26.3534 14.6261 26.5719 15.097 26.5741H15.1041C15.5722 26.5741 16.0017 26.3598 16.2832 25.9853L19.1354 22.1912C19.1908 22.1175 19.279 22.0734 19.3713 22.0734H26.9722C28.7621 22.0734 30.2183 20.6172 30.2183 18.8273V3.24604C30.2183 1.45614 28.7621 0 26.9722 0ZM28.4477 18.8274C28.4477 18.9668 28.4278 19.1015 28.3915 19.2294L19.2962 11.2565L28.4477 3.66196V18.8274ZM26.9722 1.7706C27.2421 1.7706 27.4951 1.84379 27.7129 1.97086L16.0539 11.6464C15.5079 12.0995 14.7154 12.0995 14.1694 11.6464L2.50829 1.96914C2.72549 1.84314 2.97744 1.7706 3.2461 1.7706H26.9722ZM1.82673 19.2294C1.79043 19.1015 1.7706 18.9667 1.7706 18.8274V3.65783L10.9245 11.2544L1.82673 19.2294ZM17.7201 21.1273L15.1061 24.6046L12.5524 21.1425C12.1647 20.6167 11.5432 20.3028 10.89 20.3028H3.28818L12.3042 12.3994L13.0386 13.0088C13.6392 13.5073 14.3753 13.7564 15.1116 13.7564C15.8477 13.7564 16.584 13.5071 17.1846 13.0088L17.9164 12.4015L26.93 20.3028H19.3713C18.7255 20.3029 18.1082 20.611 17.7201 21.1273Z" fill="white"/>
</svg>
