<svg width="27" height="31" viewBox="0 0 27 31" fill="none" xmlns="http://www.w3.org/2000/svg">
<path d="M13.3346 0C8.92306 0 5.33398 3.58907 5.33398 8.0006C5.33398 12.4121 8.92306 16.0012 13.3346 16.0012C17.7461 16.0012 21.3352 12.4121 21.3352 8.0006C21.3352 3.58907 17.7461 0 13.3346 0ZM13.3346 14.2233C9.9034 14.2233 7.1119 11.4318 7.1119 8.0006C7.1119 4.56941 9.9034 1.77791 13.3346 1.77791C16.7658 1.77791 19.5573 4.56941 19.5573 8.0006C19.5573 11.4318 16.7658 14.2233 13.3346 14.2233Z" fill="white"/>
<path d="M23.2886 21.2279C21.0982 19.0039 18.1945 17.7791 15.1123 17.7791H11.5564C8.47424 17.7791 5.57043 19.0039 3.38005 21.2279C1.20039 23.4411 0 26.3624 0 29.454C0 29.9449 0.398015 30.343 0.888956 30.343H25.7797C26.2707 30.343 26.6687 29.9449 26.6687 29.454C26.6687 26.3624 25.4683 23.4411 23.2886 21.2279ZM1.81703 28.5651C2.26239 23.5225 6.4604 19.557 11.5564 19.557H15.1123C20.2083 19.557 24.4063 23.5225 24.8517 28.5651H1.81703Z" fill="white"/>
</svg>
