<svg width="94" height="63" viewBox="0 0 94 63" fill="none" xmlns="http://www.w3.org/2000/svg">
<path d="M33.1328 59.032C33.1328 58.8707 33.2552 58.7383 33.4266 58.7383C33.5979 58.7383 33.7249 58.8707 33.7249 59.032V62.0639C33.7249 62.2353 33.5979 62.3577 33.4266 62.3577C33.2652 62.3577 33.1328 62.2353 33.1328 62.0639V59.032Z" fill="#2D3E50"/>
<path d="M35.2031 59.0559C35.2031 58.88 35.35 58.7676 35.5404 58.7676C35.7308 58.7676 35.8777 58.88 35.8777 59.0559V59.0849C35.8777 59.2608 35.7308 59.3787 35.5404 59.3787C35.35 59.3787 35.2031 59.2617 35.2031 59.0849V59.0559ZM35.2466 60.0197C35.2466 59.8483 35.369 59.7214 35.5404 59.7214C35.7118 59.7214 35.8387 59.8483 35.8387 60.0197V62.0642C35.8387 62.2355 35.7118 62.3579 35.5404 62.3579C35.379 62.3579 35.2466 62.2355 35.2466 62.0642V60.0197Z" fill="#2D3E50"/>
<path d="M37.4573 60.2593H37.3548C37.2179 60.2593 37.1055 60.1514 37.1055 60.0145C37.1055 59.8776 37.2179 59.7652 37.3548 59.7652H37.4573V59.5748C37.4573 59.291 37.5262 59.0807 37.6676 58.9392C37.8045 58.8023 38.0003 58.7334 38.2497 58.7334C38.3666 58.7334 38.4645 58.7434 38.548 58.7579C38.6604 58.7724 38.7529 58.8703 38.7529 59.0027C38.7529 59.1351 38.6404 59.252 38.5035 59.2475C38.4691 59.2429 38.4201 59.2375 38.3811 59.2375C38.1508 59.2375 38.0384 59.3699 38.0384 59.6292V59.7706H38.4981C38.6395 59.7706 38.7474 59.8785 38.7474 60.0154C38.7474 60.1523 38.635 60.2602 38.4981 60.2602H38.0484V62.0645C38.0484 62.2258 37.9215 62.3582 37.7501 62.3582C37.5887 62.3582 37.4563 62.2258 37.4563 62.0645V60.2602L37.4573 60.2593Z" fill="#2D3E50"/>
<path d="M41.013 62.3919C40.2696 62.3919 39.6875 61.8488 39.6875 61.0518V61.0418C39.6875 60.2984 40.2106 59.6973 40.9496 59.6973C41.771 59.6973 42.1772 60.3718 42.1772 60.9684C42.1772 61.1398 42.0502 61.2522 41.8979 61.2522H40.2795C40.343 61.6774 40.6368 61.9077 41.023 61.9077C41.2723 61.9077 41.4627 61.8198 41.6341 61.6828C41.6785 61.6484 41.7121 61.6294 41.7855 61.6294C41.9179 61.6294 42.0203 61.7318 42.0203 61.8687C42.0203 61.9422 41.9859 62.0056 41.9424 62.05C41.7075 62.2604 41.4192 62.3928 41.013 62.3928V62.3919ZM41.5996 60.8614C41.5607 60.4852 41.3358 60.1814 40.9441 60.1814C40.5778 60.1814 40.3276 60.4552 40.2741 60.8614H41.5996Z" fill="#2D3E50"/>
<path d="M45.5812 62.0734C45.5177 62.039 45.4688 61.9655 45.4688 61.8676C45.4688 61.7352 45.5712 61.6282 45.7081 61.6282C45.7525 61.6282 45.7961 61.6382 45.835 61.6627C46.0844 61.8341 46.3437 61.912 46.5785 61.912C46.8324 61.912 46.9792 61.8041 46.9792 61.6337V61.6237C46.9792 61.4279 46.7054 61.3544 46.4017 61.262C46.0254 61.1595 45.5948 60.9981 45.5948 60.504V60.494C45.5948 60.0053 46.001 59.707 46.5141 59.707C46.7879 59.707 47.0763 59.785 47.3256 59.9174C47.409 59.9618 47.467 60.0398 47.467 60.1422C47.467 60.2791 47.3591 60.3816 47.2222 60.3816C47.1687 60.3816 47.1443 60.3716 47.1053 60.3526C46.8949 60.2401 46.68 60.1767 46.4987 60.1767C46.2684 60.1767 46.137 60.2791 46.137 60.4315V60.4414C46.137 60.6273 46.4153 60.7152 46.719 60.8086C47.0908 60.9256 47.5214 61.0969 47.5214 61.5621V61.572C47.5214 62.1151 47.1007 62.3835 46.5631 62.3835C46.2303 62.3835 45.8786 62.2856 45.5803 62.0752L45.5812 62.0734Z" fill="#2D3E50"/>
<path d="M48.8408 59.032C48.8408 58.8707 48.9631 58.7383 49.1345 58.7383C49.3059 58.7383 49.4328 58.8707 49.4328 59.032V60.9396L50.5425 59.8489C50.6205 59.771 50.694 59.722 50.7964 59.722C50.9533 59.722 51.0557 59.8489 51.0557 59.9913C51.0557 60.0892 51.0068 60.1626 50.9233 60.2406L50.2388 60.8716L51.0213 61.8935C51.0748 61.9669 51.0992 62.0159 51.0992 62.0893C51.0992 62.2507 50.9723 62.3586 50.8209 62.3586C50.7039 62.3586 50.635 62.3196 50.5616 62.2262L49.8227 61.2434L49.4319 61.6151V62.0648C49.4319 62.2362 49.305 62.3586 49.1336 62.3586C48.9722 62.3586 48.8398 62.2362 48.8398 62.0648V59.0329L48.8408 59.032Z" fill="#2D3E50"/>
<path d="M52.3828 59.0559C52.3828 58.88 52.5297 58.7676 52.7201 58.7676C52.9105 58.7676 53.0574 58.88 53.0574 59.0559V59.0849C53.0574 59.2608 52.9105 59.3787 52.7201 59.3787C52.5297 59.3787 52.3828 59.2617 52.3828 59.0849V59.0559ZM52.4263 60.0197C52.4263 59.8483 52.5487 59.7214 52.7201 59.7214C52.8915 59.7214 53.0184 59.8483 53.0184 60.0197V62.0642C53.0184 62.2355 52.8915 62.3579 52.7201 62.3579C52.5587 62.3579 52.4263 62.2355 52.4263 62.0642V60.0197Z" fill="#2D3E50"/>
<path d="M54.5391 59.032C54.5391 58.8707 54.6615 58.7383 54.8328 58.7383C55.0042 58.7383 55.1311 58.8707 55.1311 59.032V62.0639C55.1311 62.2353 55.0042 62.3577 54.8328 62.3577C54.6714 62.3577 54.5391 62.2353 54.5391 62.0639V59.032Z" fill="#2D3E50"/>
<path d="M56.6523 59.032C56.6523 58.8707 56.7747 58.7383 56.9461 58.7383C57.1175 58.7383 57.2444 58.8707 57.2444 59.032V62.0639C57.2444 62.2353 57.1175 62.3577 56.9461 62.3577C56.7847 62.3577 56.6523 62.2353 56.6523 62.0639V59.032Z" fill="#2D3E50"/>
<path d="M58.632 62.0734C58.5685 62.039 58.5195 61.9655 58.5195 61.8676C58.5195 61.7352 58.622 61.6282 58.7589 61.6282C58.8033 61.6282 58.8468 61.6382 58.8858 61.6627C59.1352 61.8341 59.3945 61.912 59.6293 61.912C59.8831 61.912 60.03 61.8041 60.03 61.6337V61.6237C60.03 61.4279 59.7562 61.3544 59.4534 61.262C59.0771 61.1595 58.6465 60.9981 58.6465 60.504V60.494C58.6465 60.0053 59.0526 59.707 59.5658 59.707C59.8396 59.707 60.1279 59.785 60.3773 59.9174C60.4607 59.9618 60.5187 60.0398 60.5187 60.1422C60.5187 60.2791 60.4108 60.3816 60.2739 60.3816C60.2204 60.3816 60.1959 60.3716 60.157 60.3526C59.9466 60.2401 59.7317 60.1767 59.5504 60.1767C59.3201 60.1767 59.1886 60.2791 59.1886 60.4315V60.4414C59.1886 60.6273 59.467 60.7152 59.7707 60.8086C60.1424 60.9256 60.5731 61.0969 60.5731 61.5621V61.572C60.5731 62.1151 60.1524 62.3835 59.6148 62.3835C59.282 62.3835 58.9302 62.2856 58.632 62.0752V62.0734Z" fill="#2D3E50"/>
<path d="M65.2591 62.3919C64.5157 62.3919 63.9336 61.8488 63.9336 61.0518V61.0418C63.9336 60.2984 64.4567 59.6973 65.1957 59.6973C66.0171 59.6973 66.4233 60.3718 66.4233 60.9684C66.4233 61.1398 66.2963 61.2522 66.1449 61.2522H64.5265C64.59 61.6774 64.8838 61.9077 65.27 61.9077C65.5193 61.9077 65.7106 61.8198 65.8811 61.6828C65.9255 61.6484 65.9591 61.6294 66.0325 61.6294C66.1649 61.6294 66.2673 61.7318 66.2673 61.8687C66.2673 61.9422 66.2329 62.0056 66.1894 62.05C65.9545 62.2604 65.6662 62.3928 65.26 62.3928L65.2591 62.3919ZM65.8457 60.8614C65.8067 60.4852 65.5819 60.1814 65.1902 60.1814C64.823 60.1814 64.5737 60.4552 64.5202 60.8614H65.8457Z" fill="#2D3E50"/>
<path d="M70.2804 62.0639C70.2804 62.2353 70.148 62.3577 69.9866 62.3577C69.8153 62.3577 69.6883 62.2353 69.6883 62.0639V61.9025C69.4979 62.1718 69.2241 62.3867 68.808 62.3867C68.2014 62.3867 67.6094 61.9071 67.6094 61.0466V61.0367C67.6094 60.1762 68.1915 59.6966 68.808 59.6966C69.2287 59.6966 69.507 59.907 69.6883 60.1518V59.032C69.6883 58.8607 69.8207 58.7383 69.9821 58.7383C70.1535 58.7383 70.2804 58.8607 70.2804 59.032V62.0639ZM68.2069 61.0376V61.0475C68.2069 61.5462 68.5441 61.8744 68.9503 61.8744C69.3565 61.8744 69.6983 61.5417 69.6983 61.0475V61.0376C69.6983 60.5389 69.3465 60.2107 68.9503 60.2107C68.5541 60.2107 68.2069 60.5235 68.2069 61.0376Z" fill="#2D3E50"/>
<path d="M74.0338 62.0635C74.0338 62.2249 73.9069 62.3573 73.7355 62.3573C73.5741 62.3573 73.4372 62.2349 73.4372 62.0635V61.9311C73.2659 62.1805 73.0265 62.3863 72.6303 62.3863C72.0437 62.3863 71.7109 62 71.7109 61.3935V60.019C71.7109 59.8476 71.8433 59.7207 72.0047 59.7207C72.1761 59.7207 72.303 59.8476 72.303 60.019V61.2176C72.303 61.6238 72.5034 61.8432 72.856 61.8432C73.2087 61.8432 73.4381 61.6129 73.4381 61.2076V60.019C73.4381 59.8476 73.565 59.7207 73.7364 59.7207C73.8978 59.7207 74.0347 59.8476 74.0347 60.019V62.0635H74.0338Z" fill="#2D3E50"/>
<path d="M75.3407 61.0563V61.0463C75.3407 60.3128 75.9083 59.6963 76.6853 59.6963C77.096 59.6963 77.3699 59.8287 77.5902 60.0191C77.6292 60.0535 77.6836 60.127 77.6836 60.2249C77.6836 60.3763 77.5612 60.4941 77.4097 60.4941C77.3363 60.4941 77.2728 60.4697 77.2338 60.4352C77.0824 60.3028 76.9156 60.2149 76.6808 60.2149C76.2501 60.2149 75.9328 60.5866 75.9328 61.0363V61.0463C75.9328 61.506 76.251 61.8732 76.7053 61.8732C76.9401 61.8732 77.1214 61.7807 77.2828 61.6429C77.3173 61.6084 77.3708 61.5794 77.4442 61.5794C77.5856 61.5794 77.6981 61.6964 77.6981 61.8387C77.6981 61.9167 77.669 61.9802 77.6146 62.0246C77.3844 62.2449 77.106 62.3918 76.6753 62.3918C75.9074 62.3918 75.3398 61.7907 75.3398 61.0563H75.3407Z" fill="#2D3E50"/>
<path d="M78.8212 61.589V61.579C78.8212 61.0169 79.2564 60.7476 79.8875 60.7476C80.1812 60.7476 80.3816 60.792 80.5819 60.8555V60.792C80.5819 60.4203 80.3571 60.2299 79.9409 60.2299C79.7106 60.2299 79.5302 60.2689 79.3688 60.3323C79.3344 60.3423 79.2999 60.3469 79.2755 60.3469C79.1386 60.3469 79.0261 60.239 79.0261 60.1021C79.0261 59.9896 79.0941 59.9017 79.1875 59.8672C79.4368 59.7748 79.6816 59.7158 80.0189 59.7158C80.4052 59.7158 80.6889 59.8137 80.8748 60.0041C81.0652 60.1945 81.1531 60.4638 81.1531 60.8011V62.0722C81.1531 62.2336 81.0262 62.356 80.8648 62.356C80.6935 62.356 80.5765 62.239 80.5765 62.1067V62.0088C80.4006 62.2191 80.1313 62.385 79.7351 62.385C79.251 62.385 78.8203 62.1112 78.8203 61.5881L78.8212 61.589ZM80.5919 61.4031V61.2272C80.4405 61.1683 80.2401 61.1248 80.0053 61.1248C79.6191 61.1248 79.3988 61.2816 79.3988 61.5554V61.5654C79.3988 61.8147 79.6136 61.9571 79.902 61.9571C80.2936 61.9571 80.5919 61.7368 80.5919 61.404V61.4031Z" fill="#2D3E50"/>
<path d="M82.6721 61.6197V60.2597H82.5742C82.4327 60.2597 82.3203 60.1473 82.3203 60.0058C82.3203 59.8644 82.4327 59.7511 82.5742 59.7511H82.6721V59.3113C82.6721 59.1499 82.799 59.0176 82.9704 59.0176C83.1318 59.0176 83.2641 59.1499 83.2641 59.3113V59.7511H83.7283C83.8698 59.7511 83.9877 59.8635 83.9877 60.0058C83.9877 60.1482 83.8707 60.2597 83.7283 60.2597H83.2641V61.5263C83.2641 61.7566 83.3811 61.8491 83.5824 61.8491C83.6558 61.8491 83.7093 61.8346 83.7293 61.8346C83.8616 61.8346 83.9786 61.9425 83.9786 62.0794C83.9786 62.1918 83.9051 62.2752 83.8217 62.3097C83.6894 62.3541 83.5724 62.3777 83.4156 62.3777C82.9804 62.3777 82.6721 62.1873 82.6721 61.6197Z" fill="#2D3E50"/>
<path d="M85.2656 59.0559C85.2656 58.88 85.4125 58.7676 85.6029 58.7676C85.7933 58.7676 85.9402 58.88 85.9402 59.0559V59.0849C85.9402 59.2608 85.7933 59.3787 85.6029 59.3787C85.4125 59.3787 85.2656 59.2617 85.2656 59.0849V59.0559ZM85.3091 60.0197C85.3091 59.8483 85.4315 59.7214 85.6029 59.7214C85.7743 59.7214 85.9012 59.8483 85.9012 60.0197V62.0642C85.9012 62.2355 85.7743 62.3579 85.6029 62.3579C85.4415 62.3579 85.3091 62.2355 85.3091 62.0642V60.0197Z" fill="#2D3E50"/>
<path d="M87.2461 61.0563V61.0463C87.2461 60.3074 87.8327 59.6963 88.6251 59.6963C89.4175 59.6963 89.9996 60.2974 89.9996 61.0363V61.0463C89.9996 61.7753 89.413 62.3909 88.6161 62.3909C87.8191 62.3909 87.247 61.7898 87.247 61.0554L87.2461 61.0563ZM89.4076 61.0563V61.0463C89.4076 60.5912 89.0803 60.2149 88.6151 60.2149C88.15 60.2149 87.8372 60.5866 87.8372 61.0363V61.0463C87.8372 61.496 88.17 61.8732 88.6242 61.8732C89.1084 61.8732 89.4067 61.5014 89.4067 61.0563H89.4076Z" fill="#2D3E50"/>
<path d="M91.3164 60.02C91.3164 59.8487 91.4388 59.7217 91.6102 59.7217C91.7815 59.7217 91.9085 59.8487 91.9085 60.02V60.147C92.0798 59.9076 92.3092 59.6973 92.7154 59.6973C93.302 59.6973 93.6347 60.0835 93.6347 60.6855V62.0645C93.6347 62.2359 93.5123 62.3583 93.341 62.3583C93.1696 62.3583 93.0427 62.2359 93.0427 62.0645V60.8659C93.0427 60.4598 92.8423 60.2349 92.4905 60.2349C92.1387 60.2349 91.9085 60.4697 91.9085 60.8759V62.0645C91.9085 62.2359 91.7815 62.3583 91.6102 62.3583C91.4488 62.3583 91.3164 62.2359 91.3164 62.0645V60.02Z" fill="#2D3E50"/>
<path fill-rule="evenodd" clip-rule="evenodd" d="M39.2343 12.2218C40.5272 4.18787 26.4667 10.6913 33.8116 14.9671C36.0945 16.2219 38.7973 14.2998 39.2334 12.2209L39.2343 12.2218Z" fill="#BD8A0D"/>
<path fill-rule="evenodd" clip-rule="evenodd" d="M20.3491 9.95148C23.0971 9.95148 25.3475 7.7084 25.3475 4.96848C25.3475 2.22856 23.098 0 20.3491 0C17.6001 0 15.3516 2.22947 15.3516 4.96848C15.3516 7.7075 17.601 9.95148 20.3491 9.95148Z" fill="#FCC00D"/>
<path fill-rule="evenodd" clip-rule="evenodd" d="M24.4245 28.8755C26.9305 28.8755 28.9505 26.8473 28.9505 24.363C28.9505 21.8788 26.9296 19.8506 24.4245 19.8506C21.9194 19.8506 19.8984 21.8788 19.8984 24.363C19.8984 26.8473 21.933 28.8755 24.4245 28.8755Z" fill="#ED6C1E"/>
<path fill-rule="evenodd" clip-rule="evenodd" d="M15.4273 44.3083C17.2324 44.3083 18.7003 42.8304 18.7003 41.0316C18.7003 39.2328 17.2324 37.7686 15.4273 37.7686C13.6221 37.7686 12.1406 39.2319 12.1406 41.0316C12.1406 42.8313 13.6221 44.3083 15.4273 44.3083Z" fill="#05B2AF"/>
<path fill-rule="evenodd" clip-rule="evenodd" d="M22.1085 38.0739C21.637 41.5256 23.1185 43.2174 26.7424 40.7332C27.8204 36.315 24.8964 35.7511 22.1085 38.0739Z" fill="#745E3E"/>
<path fill-rule="evenodd" clip-rule="evenodd" d="M16.6121 20.3059C17.5414 16.4109 15.8849 13.4697 11.008 13.4697C6.49467 17.9958 12.961 25.6507 16.6121 20.3059Z" fill="#E2531B"/>
<path fill-rule="evenodd" clip-rule="evenodd" d="M47.2886 25.5037C48.3594 25.5037 49.2343 24.6315 49.2343 23.5526C49.2343 22.4737 48.3594 21.6133 47.2886 21.6133C46.2178 21.6133 45.332 22.4855 45.332 23.5526C45.332 24.6198 46.2187 25.5037 47.2886 25.5037Z" fill="#3798D4"/>
<path fill-rule="evenodd" clip-rule="evenodd" d="M43.0655 21.5515C44.8734 21.5515 46.3576 20.0827 46.3576 18.2694C46.3576 16.4561 44.8734 14.9873 43.0655 14.9873C41.2576 14.9873 39.7734 16.4679 39.7734 18.2694C39.7734 20.0709 41.2585 21.5515 43.0655 21.5515Z" fill="#91C140"/>
<path fill-rule="evenodd" clip-rule="evenodd" d="M40.5467 30.9184C44.8515 29.3 44.2069 25.9726 40.8114 24.0215C35.0442 24.182 34.5265 31.1823 40.5467 30.9184Z" fill="#188A7D"/>
<path fill-rule="evenodd" clip-rule="evenodd" d="M40.8116 24.0217C42.0093 25.1124 42.5615 26.7762 42.1698 28.3936C41.9286 29.4381 41.3411 30.3103 40.5469 30.9178C41.5134 31.1136 42.5615 30.9178 43.401 30.275C44.9206 29.1162 46.82 27.3718 48.7539 29.1045C49.3868 29.6666 50.3651 29.7237 51.0677 29.1842C51.862 28.5759 52.0116 27.4516 51.4023 26.6483C50.7921 25.8568 49.6524 25.7072 48.8582 26.3156C46.8092 27.8877 45.5317 27.1424 43.9777 25.2602C43.1834 24.2964 41.9749 23.8603 40.8125 24.0208L40.8116 24.0217Z" fill="#3798D4"/>
<path fill-rule="evenodd" clip-rule="evenodd" d="M26.1072 32.1923C19.9646 32.1923 16.8792 26.834 16.6644 21.0586C16.6644 20.8038 16.6372 20.5617 16.6109 20.307C16.0451 20.5617 15.425 20.6959 14.7649 20.6959C12.2317 20.6959 10.1709 18.6405 10.1709 16.1164C10.1709 15.1363 10.481 14.2224 11.0068 13.4708C10.1709 13.1888 9.26876 13.041 8.33944 13.041C3.7318 13.0401 0 16.761 0 21.3533C0 25.9455 3.7318 29.8006 8.33944 29.6664C14.6579 29.4923 20.3019 28.9411 21.8777 37.2941C21.9311 37.5625 22.0127 37.8182 22.107 38.0729C24.1815 37.0121 26.6204 38.4628 26.741 40.7322C28.8154 40.4366 30.4184 38.6505 30.4184 36.4881C30.4184 34.1108 28.4917 32.1905 26.1072 32.1905V32.1923Z" fill="#ED6C1E"/>
<path fill-rule="evenodd" clip-rule="evenodd" d="M22.0791 38.0878C20.9068 38.6926 20.2739 39.9283 20.3818 41.1505C20.6919 45.1525 17.5531 47.2079 13.902 47.3149C13.2691 47.3285 12.6354 47.4899 12.0433 47.7981C9.96887 48.8861 9.16104 51.451 10.2518 53.5191C11.3434 55.5872 13.9156 56.3932 15.9909 55.3052C17.5667 54.4729 18.4561 52.7802 18.2403 51.0349C17.9311 47.0193 20.5849 44.8433 24.2623 43.9974C24.5316 43.9439 24.7873 43.8496 25.0303 43.7154C26.1754 43.1243 26.7946 41.9429 26.7411 40.7334C26.539 40.7606 26.3232 40.7869 26.1083 40.7869C24.3031 40.7869 22.741 39.6591 22.1072 38.0742C22.0936 38.0742 22.08 38.0878 22.08 38.0878H22.0791Z" fill="#05B2AF"/>
<path d="M34.1104 2.76758C31.5509 2.76758 29.2742 4.35242 28.3721 6.71607C26.0683 12.0481 21.205 13.0554 15.9509 11.6846C15.5737 11.5776 15.1694 11.5241 14.7659 11.5241C13.2164 11.5241 11.8428 12.3029 11.0078 13.4716C13.9844 14.4789 16.2075 17.1118 16.6119 20.3078C17.6763 19.8508 18.5376 18.9913 18.9964 17.9169C21.2866 12.5985 26.6749 12.0753 31.4167 14.3719C31.7404 14.5333 32.0767 14.6675 32.4276 14.7608C32.9208 14.8959 33.4358 14.9712 33.9644 14.9839C33.9644 14.983 33.9644 14.9821 33.9644 14.9803C33.9145 14.9757 33.8647 14.9703 33.8148 14.9685C33.0441 14.4063 32.5491 13.5341 32.4566 12.5812C32.4222 12.214 32.4448 11.8351 32.5255 11.4679C32.9625 9.64277 34.7931 8.51851 36.6236 8.94373C37.3834 9.12688 38.0162 9.54031 38.4768 10.1024C38.9583 10.6936 39.233 11.4389 39.2366 12.2222C39.2239 12.2412 39.2103 12.2585 39.1976 12.2775C39.1994 12.282 39.2022 12.2857 39.204 12.2893C39.2992 12.1497 39.3898 12.0073 39.4723 11.8595C39.9574 10.9737 40.2403 9.96553 40.2403 8.87845C40.2403 5.5075 37.5058 2.76758 34.1104 2.76758Z" fill="#FCC00D"/>
<path fill-rule="evenodd" clip-rule="evenodd" d="M38.4865 29.622C37.3006 28.0843 37.5889 25.8811 39.1312 24.7106C39.638 24.3207 40.2255 24.0914 40.8121 24.0225C40.6507 23.8729 40.4785 23.736 40.2935 23.609C36.84 21.0386 36.9443 17.3893 38.832 13.8434C38.9698 13.5914 39.074 13.3157 39.1429 13.0283C39.2073 12.7563 39.2363 12.4843 39.2354 12.2178C39.2354 12.2196 39.2354 12.2205 39.2354 12.2223C38.1375 13.8842 36.258 14.9885 34.1101 14.9885C34.0094 14.9885 33.9124 14.9731 33.8136 14.9686C37.2671 17.5163 36.7258 21.4747 34.2506 24.493C33.8245 25.0089 33.5135 25.6173 33.3412 26.3172C32.7655 28.7498 34.2742 31.1832 36.714 31.7572C38.1066 32.0899 39.4993 31.7345 40.5474 30.9194C39.7531 30.7589 39.016 30.311 38.4865 29.6229V29.622Z" fill="#91C140"/>
<path d="M33.0625 37.1366C33.0625 35.7068 34.2792 34.5518 35.738 34.5518C37.1969 34.5518 38.4145 35.7068 38.4145 37.1366V42.7316H46.3196V37.1366C46.3196 35.7068 47.5364 34.5518 48.9961 34.5518C50.4558 34.5518 51.6716 35.7068 51.6716 37.1366V53.2516C51.6716 54.6206 50.4549 55.8365 48.9961 55.8365C47.5373 55.8365 46.3196 54.6814 46.3196 53.2516V47.4743H38.4145V53.2516C38.4145 54.6206 37.1978 55.8365 35.738 55.8365C34.2783 55.8365 33.0625 54.6814 33.0625 53.2516V37.1366Z" fill="#2D3E50"/>
<path d="M54.0156 37.1366C54.0156 35.7068 55.2315 34.5518 56.6912 34.5518C58.1509 34.5518 59.3676 35.7068 59.3676 37.1366V46.8061C59.3676 48.1135 59.6106 49.0864 60.1274 49.7555C60.7657 50.5769 61.7694 51.0022 63.0768 51.0022C64.3842 51.0022 65.4785 50.576 66.1177 49.7555C66.6345 49.1172 66.8775 48.1135 66.8775 46.8061V37.1366C66.8775 35.7068 68.0942 34.5518 69.5539 34.5518C71.0136 34.5518 72.2295 35.7068 72.2295 37.1366V47.3529C72.2295 49.634 71.6211 51.518 70.4053 52.9778C68.7633 54.8935 66.3308 55.8356 63.1076 55.8356C59.8844 55.8356 57.4827 54.8935 55.8398 52.9778C54.624 51.518 54.0156 49.6331 54.0156 47.3529V37.1366Z" fill="#2D3E50"/>
<path d="M84.9989 34.5512C86.6717 34.5512 88.1613 34.7643 89.4995 35.1895C90.6854 35.5549 91.476 36.4062 91.476 37.5912C91.476 39.021 90.3509 40.0845 88.9827 40.0845C88.4959 40.0845 87.5529 39.7799 86.9146 39.6276C86.3371 39.4762 85.6372 39.3846 84.8475 39.3846C83.2962 39.3846 81.9579 39.9322 80.8944 41.0574C79.83 42.1517 79.3132 43.5199 79.3132 45.1627C79.3132 46.8056 79.7992 48.2644 80.8029 49.3896C81.8056 50.5147 83.1747 51.0614 84.8475 51.0614C86.1549 51.0614 87.3099 50.8185 88.3744 50.3624V48.6289H86.6717C85.425 48.6289 84.3905 47.5645 84.3905 46.2571C84.3905 44.9497 85.4241 43.8852 86.6717 43.8852H91.2331C92.7834 43.8852 93.6348 44.9188 93.6348 46.4701V53.251C93.6348 54.7107 92.6012 55.8359 91.02 55.8359C90.078 55.8359 89.3472 55.5322 88.8912 54.8939C87.4931 55.5322 86.0334 55.8359 84.4821 55.8359C78.2787 55.8359 73.7482 52.0959 73.7482 45.1636C73.6267 39.2033 78.8871 34.4297 84.9989 34.5521V34.5512Z" fill="#2D3E50"/>
</svg>
