<svg width="405" height="401" viewBox="0 0 405 401" fill="none" xmlns="http://www.w3.org/2000/svg">
<path d="M3.42721 200.107C1.41508 199.992 -0.113185 198.186 0.00658511 196.131C0.126355 194.032 1.85104 192.456 3.86317 192.571L11.7392 193.026L12.3812 181.897L4.50514 181.442C2.49301 181.327 0.964743 179.521 1.08451 177.466C1.20428 175.367 2.92897 173.791 4.9411 173.906L27.6303 175.214C29.6424 175.329 31.1659 177.178 31.0509 179.191C30.9311 181.246 29.2065 182.865 27.1943 182.75L19.0596 182.281L18.4176 193.41L26.5524 193.879C28.5645 193.994 30.088 195.843 29.973 197.855C29.8532 199.911 28.1285 201.53 26.1164 201.415L3.42721 200.107Z" fill="white"/>
<path d="M30.4853 142.455C29.7907 141.487 28.6169 140.773 26.8108 140.232L13.7511 136.303C11.8204 135.724 10.7425 133.654 11.3461 131.637C11.9402 129.668 13.9954 128.494 15.9213 129.074L29.7188 133.223C32.7993 134.148 35.1276 135.791 36.5744 137.971C38.3949 140.845 38.7782 144.635 37.4703 148.985C36.172 153.296 33.7622 156.243 30.6578 157.637C28.248 158.657 25.3975 158.744 22.3218 157.814L8.52433 153.665C6.59364 153.086 5.53009 150.973 6.11936 149.004C6.723 146.992 8.76866 145.861 10.6946 146.441L23.7543 150.369C25.5604 150.911 26.9306 150.968 28.0468 150.542C29.6182 149.938 30.4326 148.707 30.9261 147.064C31.4579 145.296 31.4531 143.82 30.4805 142.45L30.4853 142.455Z" fill="white"/>
<path d="M44.1742 94.7048C45.324 92.7405 47.2164 92.5585 49.0321 93.622L57.2866 98.4512C59.0257 99.4668 59.7204 101.512 58.5706 103.477C57.8759 104.66 56.9129 105.288 55.9069 105.398C55.7248 106.979 55.2553 109.139 53.9139 111.434C49.4776 119.023 41.7549 121.859 33.28 116.9C25.8399 112.55 23.9331 103.237 28.3742 95.6485C29.6965 93.3921 30.8654 91.9884 32.3554 90.623C33.5435 89.5307 35.1675 89.042 36.6862 89.9283C38.4636 90.9679 38.9187 93.0759 37.9462 94.7383C37.448 95.5911 36.7629 96.0845 35.9197 96.9325C35.3448 97.4882 34.7555 98.2404 34.1519 99.2752C31.9433 103.05 33.2081 107.764 37.242 110.126C41.3141 112.507 45.9372 111.736 48.3614 107.592C49.4441 105.743 49.8609 104.095 50.0238 102.801L47.9158 101.565L46.7038 103.64C45.8175 105.158 43.7862 105.657 42.1908 104.727C40.6338 103.817 40.0398 101.781 40.9261 100.262L44.1742 94.7095V94.7048Z" fill="white"/>
<path d="M84.8026 63.3019L94.5087 55.1911C95.8932 54.0365 97.9677 54.3144 99.1222 55.6941C100.306 57.1074 100.181 59.1675 98.7965 60.322L86.1919 70.8522C84.5774 72.1984 82.2491 72.0212 80.9603 70.4737L66.909 53.6581C65.6154 52.1106 65.855 49.7871 67.4695 48.4409L80.074 37.9107C81.4586 36.7561 83.533 37.034 84.6876 38.4138C85.8709 39.827 85.7463 41.8871 84.3618 43.0417L74.6557 51.1525L77.5158 54.5731L85.4781 47.9187C86.8626 46.7641 88.937 47.042 90.0916 48.4217C91.2749 49.835 91.1504 51.895 89.7658 53.0496L81.8035 59.704L84.8026 63.2923V63.3019Z" fill="white"/>
<path d="M131.504 36.1855C130.009 41.0864 126.119 43.8412 122.339 45.7718L115.502 49.2595C113.629 50.2129 111.402 49.523 110.487 47.7265L100.526 28.2088C99.6114 26.4122 100.359 24.2037 102.232 23.2455L109.567 19.5039C113.385 17.5541 117.366 16.2941 122.21 17.9613C125.132 18.9722 127.93 21.2526 130.057 25.4158C132.198 29.6173 132.404 33.22 131.504 36.1807V36.1855ZM115.982 41.8913L119 40.3535C121.903 38.8731 123.901 36.9376 124.322 34.365C124.576 32.7888 124.236 30.9922 123.187 28.9274C121.941 26.4841 120.413 25.0948 118.684 24.5343C116.528 23.8061 114.099 24.3235 111.502 25.6457L108.484 27.1836L115.986 41.8913H115.982Z" fill="white"/>
<path d="M163.934 22.0913C164.422 21.0038 164.446 19.6288 164.005 17.794L160.82 4.53306C160.35 2.57362 161.596 0.599816 163.637 0.106365C165.639 -0.372715 167.685 0.810611 168.159 2.77005L171.522 16.7831C172.274 19.9115 172.03 22.7476 170.871 25.0999C169.304 28.1229 166.224 30.3602 161.802 31.4238C157.423 32.4777 153.662 31.8789 150.893 29.8955C148.795 28.3241 147.29 25.9096 146.538 22.7812L143.175 8.76812C142.706 6.80868 143.989 4.8205 145.992 4.34142C148.038 3.85276 150.04 5.04567 150.515 7.00511L153.7 20.266C154.141 22.1009 154.783 23.313 155.713 24.0603C157.025 25.1143 158.501 25.2005 160.168 24.7981C161.96 24.3669 163.239 23.6196 163.929 22.0865L163.934 22.0913Z" fill="white"/>
<path d="M219.68 3.73306C224.422 4.15465 227.963 8.38971 227.536 13.1278C227.11 17.8659 222.88 21.4111 218.142 20.9847C213.399 20.5631 209.858 16.328 210.285 11.59C210.706 6.84707 214.941 3.30668 219.68 3.73306Z" fill="white"/>
<path d="M270.953 10.9667C271.447 9.7786 272.831 9.24203 274.058 9.74986C275.322 10.2768 275.878 11.6231 275.385 12.8112L266.536 34.0679L278.015 38.8443C279.083 39.2899 279.538 40.5451 279.107 41.5751C278.647 42.6818 277.45 43.2087 276.381 42.7632L262.684 37.0622C261.458 36.5495 260.864 35.189 261.357 34.0008L270.948 10.9619L270.953 10.9667Z" fill="white"/>
<path d="M304.086 26.9161C304.756 25.819 306.208 25.4981 307.343 26.1927C308.512 26.9066 308.857 28.3246 308.182 29.4217L294.935 51.0809C294.265 52.178 292.775 52.475 291.677 51.8043C290.542 51.1096 290.164 49.6724 290.839 48.5753L304.086 26.9161Z" fill="white"/>
<path d="M340.021 51.2868C340.903 52.039 340.946 53.3708 340.199 54.2523C339.447 55.1338 338.148 55.268 337.267 54.5158L326.756 45.5571L321.443 51.7899L330.416 59.4408C331.297 60.1929 331.369 61.496 330.617 62.3775C329.836 63.2926 328.543 63.4267 327.661 62.6746L318.688 55.0237L311.789 63.1201C310.956 64.0974 309.437 64.1597 308.46 63.3261C307.449 62.4638 307.3 60.9834 308.134 60.0061L324.356 40.9771C325.189 39.9997 326.674 39.9087 327.685 40.7711L340.021 51.2868Z" fill="white"/>
<path d="M337.832 85.4591L347.179 97.369C347.893 98.2792 347.673 99.5967 346.796 100.287C345.852 101.029 344.554 100.9 343.84 99.9895L333.013 86.1921C332.194 85.1477 332.342 83.6673 333.353 82.872L352.684 67.7044C353.695 66.9091 355.165 67.1199 355.989 68.1643L366.817 81.9618C367.53 82.872 367.31 84.1895 366.4 84.9033C365.49 85.6172 364.191 85.4926 363.477 84.5823L354.131 72.6724L347.687 77.7315L355.654 87.8832C356.344 88.7599 356.157 90.0486 355.247 90.7673C354.303 91.5098 353.005 91.3805 352.315 90.5038L344.348 80.3473L337.837 85.4591H337.832Z" fill="white"/>
<path d="M389.036 139.245C388.356 137.348 389.439 135.412 388.207 131.977C387.019 128.667 385.362 127.21 383.139 128.006C381.361 128.643 380.944 130.526 380.973 133.017C381.012 135.92 381.471 138.986 380.82 142C380.331 144.318 378.952 146.45 375.967 147.523C370.64 149.435 366.021 146.215 363.923 140.361C362.505 136.404 361.93 130.094 364.555 129.155C365.806 128.705 367.099 129.385 367.516 130.554C368.167 132.37 366.4 134.689 367.89 138.847C369.25 142.642 371.655 143.513 373.835 142.728C375.694 142.062 376.221 140.232 376.307 137.923C376.384 135.345 375.895 132.332 376.374 129.333C376.805 126.717 378.123 124.422 381.27 123.296C385.711 121.706 390.013 124.173 392.371 130.751C392.993 132.485 394.929 139.537 391.901 140.625C390.732 141.046 389.467 140.447 389.036 139.235V139.245Z" fill="white"/>
<path d="M389.122 172.344L377.6 184.628C377.26 184.983 376.815 185.174 376.345 185.241C375.157 185.414 373.816 184.523 373.624 183.21C373.509 182.405 373.825 181.619 374.429 180.973L385.347 169.599L382.041 167.132L373.806 168.325C372.532 168.507 371.353 167.554 371.171 166.279C370.979 164.962 371.847 163.755 373.121 163.573L398.244 159.936C399.518 159.749 400.687 160.665 400.879 161.982C401.075 163.338 400.203 164.507 398.929 164.689L388.106 166.255L402.182 176.393C402.757 176.786 403.102 177.341 403.193 177.978C403.365 179.167 402.508 180.417 401.233 180.599C400.682 180.68 400.146 180.585 399.619 180.225L389.117 172.344H389.122Z" fill="white"/>
<path d="M401.739 199.504C403.023 199.523 404.039 200.615 404.015 201.943C403.991 203.313 402.946 204.328 401.658 204.304L376.276 203.883C374.992 203.864 373.981 202.728 374 201.444C374.024 200.117 375.069 199.058 376.357 199.082L401.739 199.504Z" fill="white"/>
<path d="M400.291 224.119C401.56 224.334 402.394 225.566 402.169 226.878C401.939 228.229 400.751 229.072 399.481 228.852L376.787 224.967L374.689 237.222C374.492 238.362 373.371 239.085 372.269 238.894C371.086 238.692 370.31 237.643 370.502 236.503L373.007 221.881C373.232 220.574 374.425 219.687 375.695 219.908L400.291 224.124V224.119Z" fill="white"/>
<path d="M392.066 260.688C393.273 261.138 393.858 262.503 393.393 263.749C392.909 265.033 391.587 265.636 390.38 265.186L368.816 257.104L364.452 268.75C364.045 269.833 362.804 270.331 361.76 269.939C360.634 269.517 360.068 268.343 360.476 267.261L365.683 253.367C366.148 252.122 367.489 251.48 368.697 251.93L392.066 260.692V260.688Z" fill="white"/>
<path d="M365.414 307.105C366.468 305.39 368.657 305.021 370.564 301.917C372.404 298.922 372.5 296.714 370.492 295.483C368.883 294.496 367.153 295.344 365.227 296.929C362.985 298.774 360.882 301.054 358.127 302.429C356.014 303.498 353.49 303.756 350.783 302.099C345.959 299.138 345.585 293.523 348.838 288.224C351.037 284.641 355.598 280.248 357.974 281.709C359.105 282.404 359.387 283.836 358.736 284.895C357.725 286.538 354.812 286.61 352.503 290.376C350.395 293.811 351.224 296.23 353.193 297.442C354.874 298.472 356.633 297.744 358.482 296.364C360.542 294.812 362.587 292.546 365.222 291.041C367.532 289.743 370.147 289.336 372.993 291.085C377.013 293.552 377.779 298.453 374.119 304.408C373.156 305.979 368.863 311.901 366.123 310.214C365.064 309.563 364.739 308.207 365.414 307.11V307.105Z" fill="white"/>
<path d="M320.001 330.158L308.432 339.921C307.545 340.669 306.223 340.496 305.504 339.644C304.728 338.729 304.81 337.425 305.696 336.678L319.101 325.367C320.116 324.509 321.602 324.605 322.43 325.587L338.278 344.367C339.107 345.349 338.954 346.83 337.938 347.687L324.533 358.998C323.647 359.746 322.325 359.573 321.578 358.687C320.83 357.801 320.912 356.502 321.798 355.755L333.368 345.991L328.083 339.73L318.219 348.056C317.366 348.775 316.068 348.636 315.326 347.75C314.549 346.83 314.631 345.531 315.484 344.813L325.348 336.486L320.011 330.163L320.001 330.158Z" fill="white"/>
<path d="M275.065 358.755C276.747 354.831 280.081 352.321 283.578 350.5L290.879 346.697C292.058 346.083 293.486 346.5 294.08 347.64L305.434 369.434C306.028 370.574 305.554 371.982 304.375 372.596L296.542 376.677C292.398 378.838 288.192 379.868 283.717 378.234C280.766 377.209 278.059 374.895 275.999 370.938C273.58 366.296 273.609 362.176 275.065 358.755ZM290.611 351.377L285.782 353.892C282.855 355.421 280.68 357.375 279.631 359.905C278.524 362.511 278.629 365.409 280.335 368.677C281.839 371.566 283.77 373.223 285.93 374.033C288.747 375.077 291.981 374.507 295.33 372.763L300.389 370.128L290.621 351.377H290.611Z" fill="white"/>
<path d="M239.891 373.401C239.057 375.025 238.956 377.085 239.56 379.494L243.211 394.097C243.522 395.347 242.731 396.602 241.443 396.928C240.154 397.254 238.865 396.511 238.549 395.266L234.731 379.997C233.921 376.754 234.108 373.789 235.363 371.398C236.848 368.504 239.814 366.396 243.977 365.352C248.097 364.322 251.705 364.791 254.378 366.641C256.615 368.159 258.177 370.689 258.987 373.932L262.805 389.201C263.116 390.446 262.326 391.706 261.037 392.032C259.748 392.358 258.46 391.615 258.143 390.37L254.493 375.767C253.889 373.353 252.83 371.585 251.331 370.545C249.616 369.338 247.484 369.122 245.069 369.726C242.616 370.339 240.834 371.537 239.891 373.41V373.401Z" fill="white"/>
<path d="M196.03 394.628C197.789 394.59 198.938 396.238 203.226 396.147C208.841 396.027 213.459 391.255 213.335 385.339C213.2 378.996 208.477 374.847 202.733 374.972C198.617 375.058 197.022 376.768 195.436 376.802C194.191 376.83 193.185 375.906 193.161 374.622C193.094 371.493 200.323 370.564 202.637 370.516C211.299 370.329 218.154 376.064 218.351 385.238C218.533 393.771 211.682 400.348 203.236 400.53C199.762 400.602 193.999 399.783 193.937 396.909C193.908 395.625 194.833 394.657 196.035 394.633L196.03 394.628Z" fill="white"/>
<path d="M156.14 367.081C156.394 365.821 157.645 365.021 158.948 365.28C160.251 365.539 161.099 366.76 160.85 368.02L159.345 375.547L173.138 378.306L174.642 370.78C174.896 369.52 176.19 368.729 177.45 368.978C178.796 369.247 179.601 370.459 179.352 371.719L176.338 386.771C175.663 390.135 173.747 393.383 170.661 395.256C168.477 396.569 165.631 397.225 162.311 396.559C158.991 395.893 156.658 394.202 155.106 392.142C152.935 389.215 152.456 385.488 153.132 382.124L156.145 367.072L156.14 367.081ZM168.501 391.203C170.091 390.034 171.174 388.108 171.672 385.626L172.305 382.474L158.512 379.715L157.88 382.867C157.381 385.349 157.592 387.576 158.617 389.224C159.532 390.762 161.209 391.797 163.183 392.195C165.162 392.592 167.025 392.219 168.496 391.203H168.501Z" fill="white"/>
<path d="M122.406 379.106L131.475 357.892C131.982 356.709 133.41 356.201 134.593 356.709C135.815 357.231 136.395 358.601 135.892 359.784L126.823 380.998L134.196 384.15C135.221 384.591 135.719 385.827 135.264 386.891C134.809 387.954 133.554 388.491 132.529 388.055L113.404 379.877C112.34 379.422 111.861 378.143 112.316 377.079C112.771 376.016 114.007 375.517 115.076 375.973L122.41 379.106H122.406Z" fill="white"/>
<path d="M97.6564 368.705C96.9713 369.792 95.5149 370.089 94.389 369.38C93.2297 368.647 92.9087 367.229 93.5986 366.141L107.161 344.684C107.851 343.596 109.341 343.323 110.429 344.008C111.554 344.717 111.909 346.159 111.219 347.247L97.6564 368.705Z" fill="white"/>
<path d="M85.0951 324.491C91.2513 330.216 92.1088 339.62 86.2114 345.963C80.2852 352.34 70.809 352.196 64.6576 346.476C58.535 340.779 57.6726 331.313 63.6036 324.941C69.5346 318.569 78.9773 318.799 85.0999 324.495L85.0951 324.491ZM67.7189 343.175C72.021 347.175 78.503 346.816 82.5033 342.514C86.5036 338.212 86.3599 331.754 82.0578 327.753C77.7221 323.724 71.336 324.107 67.3357 328.41C63.3353 332.712 63.388 339.141 67.7189 343.175Z" fill="white"/>
<path d="M48.8907 283.143C50.1459 282.323 51.7604 282.755 52.5796 284.01C53.121 284.834 53.1689 285.778 52.8527 286.702L44.4449 311.245L60.7815 300.576C61.7875 299.92 63.1769 300.241 63.8571 301.285C64.5614 302.363 64.2979 303.762 63.2918 304.418L42.1788 318.206C40.9572 319.002 39.3331 318.633 38.4899 317.339C37.9485 316.515 37.9965 315.562 38.2791 314.661L46.6247 290.108L30.2881 300.777C29.282 301.434 27.9166 301.146 27.2124 300.068C26.5081 298.991 26.7716 297.592 27.7777 296.935L48.8907 283.147V283.143Z" fill="white"/>
<path d="M12.5064 246.823C11.3374 242.21 14.1592 237.467 18.7727 236.298C23.3862 235.124 28.1291 237.951 29.2981 242.564C30.467 247.178 27.6453 251.921 23.0317 253.09C18.4182 254.259 13.6753 251.437 12.5064 246.823Z" fill="white"/>
<path fill-rule="evenodd" clip-rule="evenodd" d="M180.709 129.186C191.335 129.186 200.035 120.509 200.035 109.917C200.035 99.3246 191.335 90.7012 180.709 90.7012C170.083 90.7012 161.383 99.3198 161.383 109.917C161.383 120.514 170.083 129.186 180.709 129.186Z" fill="white"/>
<path fill-rule="evenodd" clip-rule="evenodd" d="M196.466 202.358C206.157 202.358 213.966 194.516 213.966 184.91C213.966 175.304 206.153 167.462 196.466 167.462C186.779 167.462 178.965 175.304 178.965 184.91C178.965 194.516 186.831 202.358 196.466 202.358Z" fill="white"/>
<path fill-rule="evenodd" clip-rule="evenodd" d="M161.667 262.044C168.647 262.044 174.324 256.328 174.324 249.372C174.324 242.416 168.647 236.753 161.667 236.753C154.687 236.753 148.957 242.416 148.957 249.372C148.957 256.328 154.687 262.044 161.667 262.044Z" fill="white"/>
<path fill-rule="evenodd" clip-rule="evenodd" d="M284.881 189.324C289.02 189.324 292.403 185.952 292.403 181.779C292.403 177.606 289.02 174.281 284.881 174.281C280.742 174.281 277.316 177.654 277.316 181.779C277.316 185.904 280.747 189.324 284.881 189.324Z" fill="white"/>
<path fill-rule="evenodd" clip-rule="evenodd" d="M268.553 174.04C275.543 174.04 281.282 168.358 281.282 161.349C281.282 154.34 275.543 148.658 268.553 148.658C261.564 148.658 255.824 154.383 255.824 161.349C255.824 168.315 261.568 174.04 268.553 174.04Z" fill="white"/>
<path fill-rule="evenodd" clip-rule="evenodd" d="M259.834 183.593C264.462 187.809 266.598 194.243 265.085 200.5C264.15 204.539 261.879 207.912 258.809 210.264C262.545 211.021 266.598 210.264 269.847 207.777C275.725 203.293 283.069 196.553 290.548 203.25C292.996 205.425 296.78 205.645 299.492 203.561C302.563 201.209 303.143 196.859 300.786 193.755C298.424 190.693 294.021 190.114 290.945 192.466C283.021 198.546 278.082 195.661 272.074 188.384C269.003 184.657 264.328 182.971 259.834 183.593Z" fill="white"/>
<path fill-rule="evenodd" clip-rule="evenodd" d="M202.971 215.189C179.218 215.189 167.289 194.469 166.456 172.134C166.456 171.147 166.35 170.213 166.25 169.226C164.06 170.213 161.665 170.73 159.111 170.73C149.319 170.73 141.347 162.782 141.347 153.019C141.347 149.229 142.545 145.698 144.581 142.785C141.347 141.693 137.859 141.123 134.266 141.123C116.449 141.123 102.02 155.51 102.02 173.269C102.02 191.029 116.449 205.938 134.266 205.415C158.699 204.74 180.526 202.608 186.62 234.912C186.826 235.952 187.142 236.939 187.506 237.926C195.526 233.825 204.959 239.435 205.424 248.207C213.449 247.067 219.648 240.158 219.648 231.794C219.648 222.6 212.198 215.174 202.976 215.174L202.971 215.189Z" fill="white"/>
<path fill-rule="evenodd" clip-rule="evenodd" d="M187.4 237.988C182.868 240.326 180.42 245.103 180.836 249.831C182.034 265.305 169.899 273.253 155.781 273.67C153.333 273.723 150.884 274.346 148.594 275.539C140.57 279.745 137.446 289.667 141.667 297.662C145.888 305.658 155.838 308.777 163.858 304.571C169.952 301.351 173.392 294.807 172.558 288.057C171.36 272.53 181.622 264.117 195.846 260.845C196.89 260.639 197.877 260.275 198.816 259.753C203.243 257.468 205.638 252.897 205.432 248.221C204.651 248.327 203.818 248.432 202.984 248.432C196.004 248.432 189.963 244.068 187.515 237.94C187.462 237.94 187.409 237.993 187.409 237.993L187.4 237.988Z" fill="white"/>
<path d="M233.918 101.402C224.02 101.402 215.214 107.53 211.727 116.67C202.816 137.29 184.012 141.185 163.694 135.886C162.233 135.474 160.671 135.263 159.109 135.263C153.116 135.263 147.803 138.277 144.574 142.795C156.086 146.69 164.681 156.87 166.243 169.23C170.358 167.462 173.693 164.142 175.465 159.984C184.319 139.417 205.159 137.395 223.493 146.273C224.743 146.896 226.046 147.418 227.402 147.777C229.309 148.299 231.302 148.591 233.343 148.639C233.343 148.639 233.343 148.63 233.343 148.625C233.151 148.606 232.96 148.587 232.763 148.577C229.783 146.402 227.867 143.029 227.512 139.345C227.378 137.927 227.464 136.461 227.781 135.043C229.472 127.986 236.548 123.636 243.629 125.279C246.565 125.989 249.013 127.589 250.796 129.759C252.654 132.044 253.723 134.923 253.737 137.956C253.689 138.028 253.637 138.095 253.589 138.167C253.598 138.181 253.608 138.195 253.613 138.215C253.982 137.673 254.331 137.122 254.652 136.552C256.525 133.127 257.618 129.227 257.618 125.021C257.618 111.985 247.044 101.393 233.913 101.393L233.918 101.402Z" fill="white"/>
<path fill-rule="evenodd" clip-rule="evenodd" d="M250.84 205.249C246.255 199.304 247.367 190.781 253.331 186.258C255.291 184.749 257.561 183.863 259.832 183.595C259.209 183.015 258.544 182.483 257.83 181.995C244.478 172.054 244.88 157.945 252.177 144.234C252.708 143.256 253.111 142.193 253.379 141.081C253.628 140.032 253.743 138.978 253.734 137.943C253.734 137.948 253.734 137.953 253.734 137.958C249.489 144.382 242.221 148.656 233.914 148.656C233.526 148.656 233.152 148.593 232.764 148.579C246.116 158.429 244.027 173.74 234.455 185.411C232.807 187.408 231.605 189.761 230.939 192.467C228.711 201.876 234.546 211.286 243.98 213.504C249.364 214.788 254.749 213.418 258.802 210.265C255.731 209.647 252.881 207.913 250.835 205.249H250.84Z" fill="white"/>
</svg>
