<svg width="2774" height="606" viewBox="0 0 2774 606" fill="none" xmlns="http://www.w3.org/2000/svg">
<g clip-path="url(#clip0_1225_311)">
<rect width="2774" height="605.424" fill="#0DBBB2"/>
<path d="M553.849 0H7.37218H0V570.77L25.1993 605.322H1016.19C995.784 590.774 936.428 543.257 862.233 469.574C774.674 373.619 728.658 238.901 690.378 151.113C659.754 80.8818 586.598 21.108 553.849 0Z" fill="#FEC02D"/>
<path d="M700.864 192.661C667.933 102.101 581.061 28.1596 541.741 2.50917L525.725 -18.6181L488.215 -45.71H1384.54C1386.4 -43.3909 1388.99 5.21634 1384.54 181.093C1380.09 356.97 1256.15 543.11 1194.74 614.195H1020.49C1017.88 616.799 992.026 604.868 909.431 536.315C808.786 448.271 742.029 305.862 700.864 192.661Z" fill="#8BC756" stroke="#8BC756" stroke-width="0.240152"/>
<path d="M1374.87 0H2774V631.37H2658.69C2627 580.949 2519.7 481.835 2344.06 488.75C2168.42 495.665 2086.04 591.454 2066.81 638.484L1152.79 660.642C1160.51 651.897 1197.71 599.586 1284.77 460.299C1371.82 321.011 1381.11 95.3963 1374.87 0Z" fill="#F46229"/>
<path d="M1715.1 343.19C1591.71 503.925 1360 513.38 1259.56 498.015C1262.32 493.673 1276.19 465.5 1309.66 387.544C1381.08 239.335 1379.37 71.1823 1369.58 5.63193L1358.7 -9.01605L1337.82 -57.3597L1293.22 -171.348H1561.65L2903.82 -125.253L2923.86 189.176C2809.51 242.465 2572.47 263.715 2476.88 206.426C2325.51 115.71 2291.9 28.5281 2136.51 28.5281C1876.89 36.2445 1869.35 142.27 1715.1 343.19Z" fill="#F7742E"/>
</g>
<defs>
<clipPath id="clip0_1225_311">
<rect width="2774" height="605.424" fill="white"/>
</clipPath>
</defs>
</svg>
