<svg height="900" viewBox="0 0 1096 1103" fill="none" xmlns="http://www.w3.org/2000/svg">
<path d="M484.004 240.35C516.335 240.35 542.801 266.588 542.801 298.807C542.801 331.028 516.332 357.427 484.004 357.427C451.675 357.427 425.207 331.042 425.207 298.807C425.207 266.574 451.673 240.35 484.004 240.35Z" stroke="#F7742E" stroke-opacity="0.4" stroke-width="1.47583"/>
<path d="M532.533 476.822C561.967 476.822 585.707 500.652 585.707 529.834C585.707 559.016 561.982 582.846 532.533 582.846C503.26 582.846 479.36 559.015 479.359 529.834C479.359 500.652 503.099 476.822 532.533 476.822Z" stroke="#F7742E" stroke-opacity="0.4" stroke-width="1.47583"/>
<path d="M425.341 690.256C446.438 690.256 463.595 707.371 463.595 728.391C463.595 749.414 446.434 766.688 425.341 766.688C404.244 766.688 386.926 749.41 386.926 728.391C386.926 707.375 404.24 690.256 425.341 690.256Z" stroke="#F7742E" stroke-opacity="0.4" stroke-width="1.47583"/>
<path d="M804.909 497.809C817.258 497.809 827.342 507.725 827.342 520.167C827.342 532.615 817.252 542.674 804.909 542.674C792.579 542.674 782.344 532.465 782.344 520.167C782.344 507.875 792.558 497.809 804.909 497.809Z" stroke="#F7742E" stroke-opacity="0.4" stroke-width="1.47583"/>
<path d="M754.611 418.896C775.74 418.896 793.086 436.072 793.086 457.252C793.086 478.432 775.74 495.608 754.611 495.608C733.499 495.608 716.137 478.301 716.137 457.252C716.137 436.203 733.485 418.896 754.611 418.896Z" stroke="#F7742E" stroke-opacity="0.4" stroke-width="1.47583"/>
<path d="M729.404 526.32C742.515 525.02 755.944 530.153 764.882 541.001L764.883 541.002C774.141 552.217 782.695 560.206 792.097 562.957C801.577 565.731 811.726 563.134 824.032 553.692C833.184 546.693 846.286 548.418 853.313 557.526C860.327 566.768 858.598 579.704 849.465 586.7L849.464 586.701C841.398 592.9 830.132 592.246 822.85 585.775C816.995 580.533 811.128 577.888 805.318 577.128C799.515 576.368 793.832 577.496 788.351 579.698C777.432 584.085 767.14 592.822 758.142 599.687L758.141 599.688C748.775 606.857 737.19 609.274 726.322 607.497C735.26 600.209 741.852 590.062 744.638 578.021C749.235 559.01 743.042 539.484 729.404 526.32Z" stroke="#F7742E" stroke-opacity="0.4" stroke-width="1.47583"/>
<path d="M340.939 395.681C351.587 395.681 361.929 397.316 371.551 400.454C365.536 409.386 362.015 420.106 362.015 431.587C362.015 462.074 386.904 486.887 417.476 486.887C425.082 486.887 432.247 485.413 438.834 482.596C439.109 485.272 439.362 487.81 439.362 490.473V490.486L439.363 490.5C440.651 525.012 450.512 558.329 469.28 583.036C488.066 607.766 515.757 623.843 552.588 623.843H553.12L553.133 623.802C580.892 624.084 603.224 646.523 603.224 674.258C603.223 699.378 584.807 720.17 560.828 723.967C558.855 697.156 530.133 680.082 505.36 692.118C504.367 689.359 503.513 686.607 502.942 683.729H502.943C498.236 658.772 490.478 640.407 480.271 626.945C470.057 613.475 457.419 604.953 443.02 599.641C414.287 589.042 378.481 591.222 340.919 592.261H340.918C286.474 593.856 242.34 548.29 242.34 493.971C242.34 439.671 286.459 395.681 340.939 395.681Z" stroke="#F7742E" stroke-opacity="0.4" stroke-width="1.47583"/>
<path d="M504.575 694.176C512.407 712.94 531.079 726.235 552.618 726.235C554.949 726.235 557.272 725.97 559.447 725.684C559.766 739.535 552.552 752.947 539.439 759.716L539.43 759.721L539.419 759.727C536.593 761.298 533.625 762.392 530.485 763.012L530.474 763.015L530.463 763.017C508.468 768.076 489.458 777.127 476.405 790.986C463.333 804.867 456.293 823.514 458.152 847.62L458.153 847.637L458.155 847.653C460.685 868.139 450.248 888.004 431.744 897.781C407.401 910.549 377.192 901.082 364.379 876.809C351.57 852.542 361.047 822.424 385.407 809.653L385.408 809.654C392.364 806.031 399.795 804.141 407.221 803.981H407.227C429.093 803.336 449.488 796.858 463.97 784.48C478.476 772.082 486.988 753.812 485.126 729.75L485.125 729.742L485.072 729.073C484.108 715.148 491.337 701.193 504.575 694.176Z" stroke="#F7742E" stroke-opacity="0.4" stroke-width="1.47583"/>
<path d="M649.095 273.301C688.583 273.938 720.182 305.989 720.182 345.34C720.182 358.167 716.851 370.059 711.137 380.509C710.656 381.361 710.154 382.2 709.634 383.03C709.133 374.312 705.865 366.094 700.477 359.47L700.475 359.467L699.944 358.834C694.404 352.35 686.918 347.572 677.999 345.419L677.992 345.418L676.951 345.189C655.098 340.693 633.51 354.252 628.288 376.042H628.287L628.285 376.054C627.294 380.499 627.024 385.092 627.444 389.536V389.537C628.486 400.364 633.827 410.334 642.185 417.162C637.342 416.798 632.606 415.982 628.034 414.729L628.028 414.729L627.258 414.518C623.414 413.437 619.704 411.929 616.126 410.146L616.118 410.144L614.788 409.506C586.823 396.254 557.01 391.183 530.704 397.192C503.948 403.305 480.894 420.866 467.167 452.754L467.166 452.756C461.909 465.088 452.13 474.994 440.038 480.456C434.91 442.875 408.814 411.935 373.868 399.72C383.735 386.431 399.607 377.631 417.46 377.631C422.206 377.631 426.95 378.271 431.384 379.521L431.397 379.525C462.778 387.709 493.066 388.814 518.985 379.852C544.932 370.88 566.426 351.844 580.228 319.908L580.234 319.894L580.239 319.879C590.875 292.005 617.727 273.32 647.91 273.319H649.104L649.095 273.301Z" stroke="#F7742E" stroke-opacity="0.4" stroke-width="1.47583"/>
<path d="M708.158 387.651C708.031 389.968 707.698 392.306 707.145 394.637C706.332 398.002 705.114 401.218 703.509 404.169L703.506 404.175C692.226 425.372 686.236 446.946 688.277 467.113C690.322 487.309 700.414 506.012 721.132 521.438L721.155 521.455C722.884 522.639 724.518 523.906 726.068 525.263C719.479 526.308 712.955 529.014 707.269 533.393C688.959 547.276 685.239 573.175 698.574 591.744H698.528L699.439 592.932C705.499 600.822 713.818 606.112 722.849 608.306C710.688 617.204 694.882 620.962 679.077 617.193L679.075 617.192L678.405 617.03C650.136 610.005 632.737 581.64 639.452 553.277L639.451 553.276C641.477 545.048 645.131 537.904 650.136 531.838L650.137 531.837C664.956 513.769 674.027 492.831 674.182 472.54C674.331 452.884 666.111 433.908 646.8 418.835C647.158 418.86 647.525 418.881 647.898 418.881C672.852 418.881 694.788 406.488 708.158 387.651Z" stroke="#F7742E" stroke-opacity="0.4" stroke-width="1.47583"/>
<path d="M43.3525 271.138C47.7575 262.2 58.173 258.529 66.7012 262.736L167.176 312.266V312.265C175.562 316.402 178.851 326.993 174.928 335.506L174.735 335.909C170.417 344.674 159.911 348.515 151.388 344.31L115.362 326.556L114.7 326.229L114.374 326.892L90.082 376.184L89.7559 376.846L90.418 377.172L126.442 394.926C134.961 399.129 138.221 409.991 134.002 418.57C129.683 427.335 119.178 431.176 110.654 426.971L10.1807 377.442C1.78951 373.302 -1.59275 362.896 2.42285 354.211L2.62012 353.799C7.02505 344.861 17.4396 341.19 25.9678 345.397H25.9688L60.8418 362.591L61.5039 362.917L61.8301 362.255L86.1221 312.963L86.4482 312.301L85.7871 311.975L50.9131 294.781C42.3888 290.576 39.0341 279.903 43.3525 271.138Z" stroke="#F7742E" stroke-opacity="0.4" stroke-width="1.47583"/>
<path d="M203.05 95.9414C210.364 89.7044 221.307 90.2102 227.529 97.1191L227.822 97.4531L273.912 151.483C283.79 163.062 288.965 175.489 289.438 187.797L289.468 188.987C289.334 205.239 281.214 221.507 264.82 235.775L264.033 236.454C247.272 250.754 229.623 256.419 213.297 253.951C200.779 251.77 188.916 244.633 178.723 232.685L132.633 178.654C126.466 171.429 127.613 160.292 135.043 153.956L135.044 153.957C142.514 147.592 153.303 148.217 159.523 155.134L159.816 155.468L203.427 206.605C209.511 213.731 215.177 217.766 221.162 219.024H221.163C229.585 220.785 236.482 217.723 243.016 212.148C250.03 206.166 254.136 199.841 253.737 191.245L253.705 190.542H253.661C253.175 184.658 250.101 178.631 244.249 171.777L200.639 120.64C194.468 113.41 195.462 102.407 203.05 95.9414Z" stroke="#F7742E" stroke-opacity="0.4" stroke-width="1.47583"/>
<path d="M416.308 3.24316H416.311C424.056 3.25753 431.211 6.81693 433.597 14.7021V14.7031C436.425 24.0067 431.266 32.7564 422.533 35.4033H422.532C420.294 36.0854 418.17 36.3064 415.853 36.3828C414.69 36.4211 413.489 36.4237 412.196 36.4307C411.229 36.4359 410.215 36.4438 409.142 36.4727L408.048 36.5088C404.029 36.6005 399.332 37.368 393.622 39.0928H393.621C372.576 45.4755 361.185 67.2005 367.981 89.6162C371.399 100.884 378.016 109.78 386.7 114.983C395.393 120.192 406.104 121.666 417.618 118.178H417.619C427.838 115.075 434.935 110.461 439.929 106.26L440.301 105.946L440.159 105.48L436.662 93.9541L436.447 93.248L435.741 93.4629L424.422 96.9014C416.664 99.2477 408.188 94.6939 405.512 86.6084L405.389 86.2207C402.916 78.0962 407.411 69.1567 415.271 66.7598L415.272 66.7607L445.615 57.5508L445.614 57.5459C450.794 55.9797 455.108 56.5887 458.479 58.708C461.764 60.7736 464.244 64.332 465.732 68.9473L465.873 69.3975L479.554 114.498C480.942 119.084 480.581 123.688 478.612 127.526C476.646 131.359 473.05 134.478 467.869 136.055C461.573 137.962 456.248 137.008 452.469 134.191L451.995 133.839L451.547 134.224C445.822 139.14 437.347 145.094 425.545 148.889L424.392 149.249C403.801 155.501 384.281 154.734 368.191 146.721C352.11 138.712 339.357 123.416 332.38 100.419C320.175 60.2128 344.182 20.5227 385.298 8.05176H385.299C397.569 4.3238 406.424 3.18462 416.308 3.24316Z" stroke="#F7742E" stroke-opacity="0.4" stroke-width="1.47583"/>
<path d="M664.794 12.8301C667.561 3.73674 677.362 -1.354 686.896 1.55859H686.896L764.333 25.1572C772.393 27.6102 776.677 36.4839 774.202 44.6318C771.655 52.9661 763.221 57.7528 755.156 55.2842H755.155L695.518 37.1016L694.812 36.8867L694.597 37.5928L688.191 58.623L687.977 59.3291L688.682 59.5439L737.605 74.4492V74.4502C745.665 76.9032 749.95 85.7768 747.475 93.9248C744.942 102.257 736.495 107.046 728.429 104.591L679.505 89.6855L678.799 89.4707L678.584 90.1758L671.868 112.21L671.653 112.916L672.359 113.131L731.997 131.313H731.998C740.058 133.767 744.342 142.64 741.867 150.788C739.32 159.122 730.886 163.909 722.821 161.44H722.82L645.384 137.842C635.848 134.929 630.548 125.245 633.315 116.152L664.794 12.8301Z" stroke="#F7742E" stroke-opacity="0.4" stroke-width="1.47583"/>
<path d="M859.941 91.3896C865.956 84.0339 876.954 83.0595 884.67 89.3828H884.671L916.062 115.092C932.093 128.215 945.313 143.261 947.656 167.466L947.76 168.626C948.934 183.377 944.423 200.046 930.459 217.433L929.786 218.262C915.511 235.698 900.211 243.668 885.607 245.69L884.55 245.815C859.766 248.731 839.838 236.775 823.694 223.56L794.429 199.592H794.428C786.833 193.367 785.546 182.648 791.245 175.298L791.521 174.951L859.941 91.3896ZM879.136 124.311L827.585 187.27L827.418 187.473V188.101L827.688 188.322L840.603 198.904C853.101 209.146 866.036 214.513 878.813 211.224C886.623 209.211 894.202 204.004 901.501 195.081L901.5 195.08C909.886 184.847 913.296 175.306 912.659 166.373L912.585 165.511C911.597 154.054 904.263 143.946 893.088 134.789L880.175 124.207L879.604 123.739L879.136 124.311Z" stroke="#F7742E" stroke-opacity="0.4" stroke-width="1.47583"/>
<path d="M1027.8 254.745C1036.24 250.385 1046.82 254.027 1051.31 262.692V262.693C1055.81 271.408 1052.76 281.786 1044.61 286.27L1044.22 286.479L984.52 317.353C976.187 321.653 970.991 326.266 968.398 331.804L968.397 331.807C964.897 339.357 966.114 346.56 969.776 353.938L970.139 354.652C974.371 362.832 979.602 368.278 988.075 369.826V369.827C994.092 370.932 1000.86 369.333 1009.18 365.034L1068.88 334.16C1077.32 329.797 1087.81 333.256 1092.38 342.107C1096.8 350.653 1093.82 361.197 1085.68 365.684L1085.29 365.893L1022.21 398.522C1008.26 405.732 994.569 407.873 982.168 405.161H982.169C966.369 401.343 952.356 389.743 942.179 370.524L941.696 369.604C931.574 350.033 930.048 331.566 936.157 316.229C940.956 304.902 950.172 295.212 963.432 288.061L964.728 287.376L1027.8 254.745Z" stroke="#F7742E" stroke-opacity="0.4" stroke-width="1.47583"/>
<path d="M90.6572 701.783C92.6875 701.152 94.8986 702.322 95.5908 704.487V704.488C96.2893 706.657 95.2333 708.762 93.3066 709.485L93.1172 709.551L49.1963 723.602L48.4941 723.826L48.7188 724.528L56.3047 748.245C56.8804 750.044 55.8009 751.964 54.0371 752.527L54.0352 752.528C52.1112 753.149 50.1967 752.178 49.6211 750.392L40.5752 722.087C39.9015 719.98 40.9427 717.813 42.8604 717.088L43.0488 717.022L90.6592 701.792L90.6572 701.783Z" stroke="#F7742E" stroke-opacity="0.4" stroke-width="1.47583"/>
<path d="M111.057 758.895C113.021 758.035 115.343 758.967 116.253 761.065L116.254 761.068C117.202 763.23 116.278 765.488 114.317 766.353L67.7402 786.704V786.705C65.847 787.533 63.5745 786.615 62.6299 784.719L62.543 784.532C61.6336 782.448 62.5287 780.106 64.4795 779.246L111.057 758.895Z" stroke="#F7742E" stroke-opacity="0.4" stroke-width="1.47583"/>
<path d="M125.63 792.302C127.498 791.245 129.905 791.929 131.029 793.912L131.03 793.913L147.072 822.131V822.132C148.002 823.766 147.353 825.865 145.655 826.819L145.651 826.821C144.02 827.75 142.031 827.276 141.053 825.744L140.961 825.593L127.295 801.552L126.931 800.91L126.289 801.274L112.032 809.377L111.392 809.741L111.756 810.383L123.414 830.912H123.415C124.354 832.561 123.754 834.613 122.067 835.573C120.357 836.549 118.368 836.065 117.395 834.539L117.304 834.389L105.645 813.86L105.28 813.219L104.639 813.583L86.1328 824.105C84.2711 825.159 81.8174 824.411 80.7334 822.495V822.494L80.6328 822.307C79.6475 820.357 80.3026 818.057 82.1074 817.036H82.1084L125.629 792.301L125.63 792.302Z" stroke="#F7742E" stroke-opacity="0.4" stroke-width="1.47583"/>
<path d="M158.207 846.057C159.914 844.755 162.393 845.114 163.77 846.92V846.921L185.081 874.844C186.212 876.333 185.857 878.502 184.306 879.696C182.766 880.866 180.636 880.616 179.495 879.114L179.494 879.113L161.105 855.027L160.658 854.441L160.071 854.889L147.04 864.836L146.453 865.284L146.901 865.87L162.589 886.414L162.59 886.415C163.68 887.837 163.374 889.961 161.829 891.135L161.826 891.137C160.268 892.332 158.224 892.104 157.107 890.798L157.002 890.668L141.314 870.125L140.867 869.539L140.28 869.987L127.102 880.052L125.367 881.376H127.199L145.365 905.17V905.171C146.469 906.623 146.156 908.705 144.797 909.859L144.662 909.968C143.112 911.157 141.063 910.944 139.888 909.574L139.777 909.438L118.469 881.519C117.133 879.766 117.375 877.367 118.941 876.037L119.098 875.912L158.206 846.056L158.207 846.057Z" stroke="#F7742E" stroke-opacity="0.4" stroke-width="1.47583"/>
<path d="M217.771 930.218C220.699 926.79 224.499 925.102 228.839 925.331C233.206 925.562 238.2 927.74 243.442 932.219H243.443C244.813 933.387 248.059 936.525 250.435 939.953C251.625 941.671 252.561 943.412 252.959 944.982C253.354 946.541 253.197 947.824 252.365 948.798C251.012 950.373 248.701 950.569 247.041 949.159C245.642 947.961 244.941 946.367 243.812 944.262C242.702 942.189 241.252 939.805 238.38 937.354C235.663 935.033 233.116 933.569 230.783 933.196C228.382 932.812 226.282 933.598 224.589 935.575L224.588 935.577C223.199 937.208 222.839 939.079 223.163 941.075C223.481 943.034 224.456 945.129 225.738 947.307V947.308C226.484 948.572 227.286 949.825 228.091 951.077C228.898 952.332 229.708 953.585 230.484 954.864C232.036 957.422 233.43 960.053 234.334 962.916L234.335 962.919C235.716 967.23 235.466 972.031 231.525 976.633L231.524 976.634C227.986 980.775 223.553 982.58 218.872 982.404C214.168 982.228 209.148 980.045 204.51 976.08L204.509 976.079C201.364 973.398 198.005 969.497 195.889 965.767C194.829 963.9 194.105 962.117 193.853 960.58C193.6 959.044 193.831 957.852 194.541 957.02C195.99 955.322 198.444 955.228 200.038 956.584V956.585C200.652 957.11 201.1 957.828 201.528 958.772C201.972 959.753 202.327 960.803 202.862 962.109C203.906 964.653 205.455 967.648 208.938 970.62C212.094 973.312 215.054 974.505 217.69 974.499C220.343 974.493 222.552 973.273 224.175 971.38L224.176 971.379C226.892 968.194 226.07 964.372 224.173 960.522L223.78 959.753L223.778 959.749C222.546 957.441 220.948 955.066 219.436 952.631C218.005 950.327 216.626 947.933 215.593 945.358L215.391 944.841C214.498 942.434 214.068 939.988 214.363 937.554C214.658 935.126 215.681 932.662 217.771 930.219V930.218Z" stroke="#F7742E" stroke-opacity="0.4" stroke-width="1.47583"/>
<path d="M275.814 962.682C276.981 960.876 279.438 960.377 281.346 961.615V961.616C283.322 962.896 283.819 965.295 282.66 967.107L270.796 985.509L269.807 987.044L271.585 986.627L305.41 978.702L305.42 978.7L305.429 978.697C306.59 978.394 307.661 978.585 308.562 979.165H308.562C310.254 980.252 310.887 982.751 309.729 984.55L309.728 984.552C309.217 985.348 308.529 985.905 307.485 986.181L281.8 991.666L281.586 991.712L281.17 992.128L281.205 992.477L284.599 1026.03V1026.03C284.669 1026.81 284.436 1027.58 283.991 1028.26L283.989 1028.26C282.898 1029.96 280.235 1030.69 278.371 1029.48L278.369 1029.47L278.161 1029.33C277.217 1028.63 276.629 1027.53 276.411 1026.15L276.37 1025.85L273.568 994.418L273.494 993.586L272.678 993.762L264.604 995.503L264.306 995.567L264.141 995.825L255.108 1009.83C253.946 1011.63 251.433 1012.09 249.576 1010.89L249.575 1010.89C247.654 1009.65 247.106 1007.21 248.262 1005.4L275.813 962.681L275.814 962.682Z" stroke="#F7742E" stroke-opacity="0.4" stroke-width="1.47583"/>
<path d="M332.749 996.673C333.706 994.758 336.099 993.986 338.133 995.01L338.135 995.011C340.236 996.062 340.992 998.399 340.02 1000.32L340.019 1000.32L317.217 1045.75V1045.75C316.264 1047.65 313.802 1048.4 311.831 1047.41C309.794 1046.38 308.978 1044.01 309.945 1042.1L309.947 1042.1L332.748 996.674L332.749 996.673Z" stroke="#F7742E" stroke-opacity="0.4" stroke-width="1.47583"/>
<path d="M365.674 1012.13C366.454 1010.27 368.578 1009.32 370.613 1009.98L370.813 1010.05C372.948 1010.86 373.935 1012.99 373.301 1014.94L373.233 1015.13L356.882 1058.24L356.62 1058.93L357.31 1059.19L380.583 1068.03C382.346 1068.7 383.178 1070.74 382.517 1072.48C381.793 1074.38 379.854 1075.28 378.097 1074.61V1074.61L350.321 1064.07H350.32C348.184 1063.26 347.139 1060.99 347.9 1058.99H347.901L365.626 1012.26L365.674 1012.14V1012.13Z" stroke="#F7742E" stroke-opacity="0.4" stroke-width="1.47583"/>
<path d="M422.522 1031.95C423.026 1029.86 425.178 1028.57 427.389 1029.1L427.391 1029.1C429.679 1029.64 430.936 1031.75 430.444 1033.83L419.7 1078.67L419.528 1079.39L420.246 1079.56L444.463 1085.36V1085.36C446.297 1085.8 447.373 1087.71 446.944 1089.52C446.472 1091.48 444.648 1092.62 442.828 1092.19L413.935 1085.27C411.723 1084.74 410.389 1082.61 410.879 1080.53L422.519 1031.95L422.522 1031.95Z" stroke="#F7742E" stroke-opacity="0.4" stroke-width="1.47583"/>
<path d="M484.056 1044.97C487.786 1042.69 493.135 1041.66 499.991 1042.38H499.992C501.787 1042.57 506.236 1043.32 510.131 1044.8C512.082 1045.55 513.838 1046.45 515.053 1047.53C516.259 1048.59 516.855 1049.74 516.72 1051.02C516.511 1052.97 514.901 1054.38 512.9 1054.34L512.544 1054.3C510.713 1054.11 509.231 1053.19 507.11 1052.09C505.023 1051.01 502.481 1049.87 498.731 1049.46H498.729C495.181 1049.09 492.253 1049.32 490.116 1050.33C487.917 1051.37 486.625 1053.21 486.348 1055.8V1055.8C486.122 1057.93 486.882 1059.67 488.275 1061.13C489.642 1062.57 491.628 1063.75 493.91 1064.82L493.912 1064.83C495.244 1065.45 496.615 1066.03 497.987 1066.61C499.364 1067.19 500.741 1067.76 502.104 1068.38C504.831 1069.61 507.466 1070.99 509.826 1072.84L509.829 1072.84C513.407 1075.62 515.907 1079.72 515.273 1085.74C514.699 1091.16 512.065 1095.16 508.105 1097.66C504.126 1100.17 498.751 1101.21 492.68 1100.55H492.679C488.57 1100.12 483.592 1098.81 479.735 1096.93C477.805 1095.99 476.2 1094.93 475.122 1093.8C474.045 1092.68 473.561 1091.57 473.677 1090.48V1090.47C473.912 1088.26 475.879 1086.79 477.971 1087.01V1087.01C478.773 1087.1 479.549 1087.44 480.436 1087.98C481.356 1088.53 482.243 1089.2 483.423 1089.97C485.722 1091.48 488.693 1093.08 493.245 1093.57L493.246 1093.57C497.372 1094.01 500.489 1093.32 502.659 1091.82C504.842 1090.31 505.971 1088.06 506.233 1085.58V1085.57C506.7 1081.14 503.444 1078.38 499.336 1076.21L499.333 1076.21L498.449 1075.76C496.352 1074.73 494.028 1073.8 491.731 1072.79C489.248 1071.7 486.757 1070.51 484.449 1068.97L483.99 1068.66C481.891 1067.18 480.156 1065.41 479.025 1063.23C477.898 1061.06 477.352 1058.45 477.691 1055.25C478.17 1050.77 480.349 1047.23 484.056 1044.97Z" stroke="#F7742E" stroke-opacity="0.4" stroke-width="1.47583"/>
<path d="M619.551 1041.05C621.414 1040.86 623.088 1042.3 623.286 1044.23C623.477 1046.09 622.241 1047.73 620.455 1048.02L620.28 1048.04L590.132 1051.2L589.398 1051.28L589.476 1052.01L591.188 1068.32L591.264 1069.05L591.998 1068.98L617.707 1066.29H617.708C619.428 1066.11 621.039 1067.39 621.329 1069.22L621.354 1069.4C621.558 1071.36 620.305 1072.99 618.604 1073.26L618.438 1073.28L592.729 1075.97L591.996 1076.04L592.072 1076.78L593.795 1093.22V1094.02L594.61 1093.93L624.762 1090.78L624.761 1090.78C626.633 1090.58 628.297 1092.03 628.48 1093.86L628.481 1093.87C628.693 1095.88 627.359 1097.56 625.494 1097.75H625.493L590.561 1101.41H590.56C588.298 1101.65 586.324 1100.09 586.103 1097.95V1097.95L580.981 1049.01C580.761 1046.87 582.358 1044.94 584.615 1044.72H584.619L619.552 1041.06L619.551 1041.05Z" stroke="#F7742E" stroke-opacity="0.4" stroke-width="1.47583"/>
<path d="M666.944 1031.21C675.623 1028.95 683.798 1028.79 691.351 1033.36L692.08 1033.81L692.09 1033.82C697.201 1037.02 701.355 1042.58 703.574 1051.06C706.165 1061.01 704.304 1068.8 700.062 1074.63L699.69 1075.14L699.697 1075.15C694.967 1081.31 688.026 1084.54 680.889 1086.48L680.179 1086.67L664.226 1090.83H664.224C662.085 1091.4 659.985 1090.24 659.352 1088.28L659.295 1088.08L646.87 1040.48C646.329 1038.4 647.613 1036.25 649.822 1035.68L649.825 1035.68L666.944 1031.21ZM686.718 1039.79C681.443 1036.33 674.635 1036.04 667.222 1037.97L656.168 1040.85L655.453 1041.03L655.64 1041.75L666.324 1082.7L666.511 1083.42L667.226 1083.23L677.777 1080.47C684.263 1078.78 689.567 1075.86 692.891 1071.21L692.89 1071.21C696.355 1066.42 697.464 1060.49 695.558 1053.17H695.557C693.865 1046.7 690.76 1042.45 686.718 1039.79Z" stroke="#F7742E" stroke-opacity="0.4" stroke-width="1.47583"/>
<path d="M759.638 996.56C761.726 995.636 764.079 996.522 764.937 998.47V998.471L777.688 1027.29C780.352 1033.3 780.941 1039.03 779.344 1043.96L779.341 1043.97C777.532 1049.74 772.848 1054.65 765.542 1058.05L764.826 1058.38C757.185 1061.75 750.138 1062.02 744.479 1059.38L744.472 1059.38C739.9 1057.31 736.162 1053.22 733.511 1047.5L733.258 1046.94L720.507 1018.12L720.506 1018.12C719.635 1016.16 720.566 1013.84 722.654 1012.91C724.742 1011.99 727.093 1012.87 727.951 1014.83L727.953 1014.84L740.143 1042.41H740.144C742.208 1047.06 744.995 1050.36 748.53 1052V1052C752.574 1053.92 757.087 1053.55 761.776 1051.49L761.778 1051.49C766.542 1049.38 769.838 1046.28 771.144 1042L771.143 1042C772.231 1038.52 771.809 1034.53 770.051 1030.21L769.681 1029.34L757.491 1001.77L757.49 1001.77C756.62 999.806 757.549 997.484 759.638 996.56Z" stroke="#F7742E" stroke-opacity="0.4" stroke-width="1.47583"/>
<path d="M820.845 962.186C822.699 961.688 824.408 961.472 825.808 961.645C827.19 961.815 828.21 962.354 828.833 963.327C830.011 965.169 829.51 967.32 827.846 968.39L827.561 968.572C827.001 968.879 826.394 969.072 825.686 969.224C824.801 969.413 823.944 969.513 822.765 969.733C820.635 970.132 818.02 970.844 814.645 972.891L813.959 973.318C804.133 979.609 801.139 993.041 807.744 1003.35C814.816 1014.4 827.672 1016.65 837.704 1010.23V1010.23C841.267 1007.95 843.298 1005.62 844.773 1003.66C845.139 1003.17 845.471 1002.71 845.778 1002.28C846.088 1001.84 846.37 1001.45 846.647 1001.09C847.204 1000.38 847.705 999.848 848.27 999.488L848.271 999.487C850.031 998.36 852.258 998.803 853.421 1000.62C854.089 1001.67 854.075 1002.95 853.47 1004.47C852.862 1005.99 851.697 1007.63 850.266 1009.23C847.408 1012.42 843.642 1015.29 841.734 1016.52C834.57 1021.1 826.683 1022.73 819.398 1021.34C812.121 1019.96 805.387 1015.55 800.53 1007.97C791.558 993.954 796.254 975.998 810.18 967.079C813.068 965.231 817.141 963.178 820.845 962.186Z" stroke="#F7742E" stroke-opacity="0.4" stroke-width="1.47583"/>
<path d="M876.699 922.094C883.737 922.208 890.06 925.859 894.471 930.903V930.904L914.72 954.03L914.735 954.049L914.742 954.055C916.145 955.663 915.959 958.157 914.242 959.659C912.521 961.165 910.025 961.025 908.614 959.405L908.613 959.404L898.489 947.834L898.003 947.278L897.447 947.765L876.255 966.315L875.699 966.802L876.186 967.356L886.31 978.928H886.311C887.671 980.478 887.485 982.931 885.968 984.403L885.817 984.543C884.045 986.1 881.607 985.915 880.189 984.288L880.188 984.286L859.94 961.16H859.939C855.519 956.12 852.796 949.31 853.551 942.366C854.106 937.471 856.439 932.327 861.406 927.978C866.368 923.632 871.707 922.052 876.699 922.094ZM877.15 929.788C873.343 929.346 869.453 930.835 866.293 933.596C863.114 936.373 861.329 939.98 861.142 943.768L861.104 944.542H861.163C861.303 948.483 863.112 952.442 866.326 956.125L866.327 956.126L870.562 960.967L871.049 961.521L871.604 961.036L892.797 942.484L893.352 941.999L892.866 941.443L888.63 936.603L888.31 936.242C884.982 932.563 881.152 930.173 877.149 929.788H877.15Z" stroke="#F7742E" stroke-opacity="0.4" stroke-width="1.47583"/>
<path d="M921.94 866.2C923.181 864.767 925.443 864.64 926.906 865.906C928.354 867.16 928.512 869.35 927.259 870.798L917.031 882.615H915.374L916.87 883.911L951.788 914.15L951.789 914.151C953.4 915.542 953.509 918.111 952.068 919.78C950.622 921.447 948.227 921.694 946.606 920.437L946.452 920.311L911.534 890.071L910.977 889.588L910.494 890.146L899.986 902.276C898.835 903.603 896.73 903.804 895.29 902.684L895.152 902.571C893.685 901.301 893.503 899.048 894.681 897.679L894.682 897.68L921.94 866.2Z" stroke="#F7742E" stroke-opacity="0.4" stroke-width="1.47583"/>
<path d="M938.388 842.038C939.727 840.105 942.149 839.704 943.914 840.926V840.925L985.604 869.983C987.352 871.207 987.73 873.748 986.469 875.552L986.468 875.554C985.167 877.422 982.7 877.882 980.943 876.668L939.251 847.609H939.252C937.494 846.38 937.072 843.91 938.385 842.042L938.388 842.038Z" stroke="#F7742E" stroke-opacity="0.4" stroke-width="1.47583"/>
<path d="M969.149 791.399C976.754 776.911 994.165 770.457 1009.21 778.354C1024.02 786.124 1028.54 803.601 1021.41 817.969L1021.06 818.65C1013.41 833.23 996.117 839.636 981.162 831.785C966.116 823.888 961.501 805.975 969.149 791.399ZM1005.16 786.094C994.53 780.508 981.86 783.945 976.055 794.51H976.034L975.827 794.905C970.171 805.699 974.418 818.461 985.184 824.118C995.954 829.778 1008.8 825.98 1014.47 815.189H1014.47C1020.17 804.32 1015.91 791.735 1005.16 786.094Z" stroke="#F7742E" stroke-opacity="0.4" stroke-width="1.47583"/>
<path d="M1006.41 698.528C1007.09 696.432 1009.2 695.345 1011.07 695.947V695.946L1059.08 711.576H1059.08C1061.51 712.365 1062.7 714.972 1061.88 717.494L1061.88 717.495C1061.39 719.012 1060.29 720.079 1058.78 720.702L1058.48 720.821L1009.64 738.517L1007.63 739.247L1009.67 739.912L1046.81 751.999H1046.82C1048.69 752.603 1049.75 754.749 1049.1 756.751C1048.42 758.847 1046.3 759.934 1044.44 759.332H1044.44L996.428 743.703C994.071 742.938 992.782 740.366 993.625 737.786L993.626 737.784C994.103 736.307 995.287 735.335 996.799 734.681L997.105 734.554L1045.86 716.762L1047.87 716.029L1045.84 715.367L1008.69 703.28L1008.69 703.279L1008.52 703.219C1006.74 702.544 1005.75 700.544 1006.41 698.528Z" stroke="#F7742E" stroke-opacity="0.4" stroke-width="1.47583"/>
<path d="M44.6084 553.535C54.7559 553.535 62.9824 561.762 62.9824 571.909C62.9822 582.057 54.7558 590.283 44.6084 590.283C34.4608 590.283 26.2346 582.057 26.2344 571.909C26.2344 561.761 34.4607 553.535 44.6084 553.535Z" stroke="#F7742E" stroke-opacity="0.4" stroke-width="1.47583"/>
<path d="M1055.34 553.535C1065.49 553.535 1073.72 561.762 1073.72 571.909C1073.72 582.057 1065.49 590.283 1055.34 590.283C1045.2 590.283 1036.97 582.057 1036.97 571.909C1036.97 561.761 1045.2 553.535 1055.34 553.535Z" stroke="#F7742E" stroke-opacity="0.4" stroke-width="1.47583"/>
</svg>
