<svg width="14979" height="4219" viewBox="0 0 14979 4219" fill="none" xmlns="http://www.w3.org/2000/svg">
<path d="M2248.08 2533.69C2248.08 2437.16 2330.23 2359.12 2428.81 2359.12C2527.39 2359.12 2609.54 2437.16 2609.54 2533.69V2911.58H3143.53V2533.69C3143.53 2437.16 3225.68 2359.12 3324.26 2359.12C3422.84 2359.12 3504.99 2437.16 3504.99 2533.69V3622.19C3504.99 3718.72 3420.79 3796.77 3324.26 3796.77C3227.73 3796.77 3143.53 3718.72 3143.53 3622.19V3231.98H2609.54V3622.19C2609.54 3718.72 2525.34 3796.77 2428.81 3796.77C2332.28 3796.77 2248.08 3718.72 2248.08 3622.19V2533.69Z" fill="#2C3E50"/>
<path d="M4480.54 3385.88C4515.46 3340.69 4531.89 3277.02 4531.89 3186.66V2533.55C4531.89 2437.03 4611.99 2358.98 4712.62 2358.98C4813.26 2358.98 4893.36 2437.03 4893.36 2533.55V3223.63C4893.36 3377.66 4850.23 3507.05 4770.13 3603.58C4663.33 3726.8 4494.92 3796.63 4277.22 3796.63C4059.52 3796.63 3893.16 3726.8 3786.36 3603.58C3706.27 3507.05 3663.14 3377.66 3663.14 3223.63V2533.55C3663.14 2437.03 3745.29 2358.98 3843.87 2358.98C3942.45 2358.98 4024.6 2437.03 4024.6 2533.55V3186.66C4024.6 3277.02 4041.03 3340.69 4075.95 3385.88C4125.24 3449.54 4193.01 3470.08 4275.17 3470.08C4363.48 3470.08 4431.25 3449.54 4480.54 3385.88Z" fill="#2C3E50"/>
<path d="M6176.97 2989.49C6285.82 2989.49 6339.22 3063.43 6339.22 3164.07V3622.06C6339.22 3718.59 6271.44 3796.63 6162.59 3796.63C6096.87 3796.63 6047.58 3771.99 6018.83 3732.97C5949 3763.77 5848.36 3796.63 5721.03 3796.63C5300 3796.63 4996.04 3546.07 4996.04 3075.75C4996.04 2662.94 5334.91 2358.98 5755.94 2358.98C5881.22 2358.98 5967.48 2373.36 6059.9 2402.11C6133.84 2424.7 6193.4 2480.15 6193.4 2564.36C6193.4 2662.94 6117.41 2732.77 6024.99 2732.77C5977.75 2732.77 5940.78 2716.34 5885.33 2701.96C5848.36 2691.7 5803.18 2685.53 5745.67 2685.53C5536.19 2685.53 5371.88 2851.89 5371.88 3075.75C5371.88 3299.62 5515.65 3474.19 5745.67 3474.19C5848.36 3474.19 5926.4 3451.6 5983.91 3426.95V3309.89H5868.9C5784.69 3309.89 5714.86 3238 5714.86 3149.69C5714.86 3061.38 5784.69 2989.49 5868.9 2989.49H6176.97Z" fill="#2C3E50"/>
<path fill-rule="evenodd" clip-rule="evenodd" d="M2667.87 831.103C2755.77 284.796 1799.8 727.045 2299.15 1017.86C2454.41 1103.16 2638.16 972.541 2667.87 831.103Z" fill="#BD8A0E"/>
<path fill-rule="evenodd" clip-rule="evenodd" d="M1383.71 676.655C1570.6 676.655 1723.54 524.127 1723.54 337.78C1723.54 151.433 1570.6 0 1383.71 0C1196.81 0 1043.88 151.57 1043.88 337.917C1043.88 524.264 1196.81 676.791 1383.71 676.791" fill="#FBBF09"/>
<path fill-rule="evenodd" clip-rule="evenodd" d="M1660.69 1963.42C1831.02 1963.42 1968.49 1825.54 1968.49 1656.59C1968.49 1487.63 1831.02 1349.75 1660.69 1349.75C1490.37 1349.75 1352.9 1487.63 1352.9 1656.59C1352.9 1825.54 1491.19 1963.42 1660.69 1963.42Z" fill="#EC6C1D"/>
<path fill-rule="evenodd" clip-rule="evenodd" d="M1048.94 3012.76C1171.62 3012.76 1271.57 2912.27 1271.57 2790C1271.57 2667.73 1171.75 2568.05 1048.94 2568.05C926.122 2568.05 825.486 2667.59 825.486 2790C825.486 2912.4 926.259 3012.76 1048.94 3012.76Z" fill="#00B0AE"/>
<path fill-rule="evenodd" clip-rule="evenodd" d="M1503.23 2589C1471.2 2823.68 1571.97 2938.83 1818.29 2769.87C1891.54 2469.47 1692.73 2431.13 1503.23 2589Z" fill="#745E3D"/>
<path fill-rule="evenodd" clip-rule="evenodd" d="M1129.44 1380.84C1192.56 1116.03 1080.02 915.995 748.398 915.995C441.562 1223.79 881.209 1744.22 1129.44 1380.84Z" fill="#E1531A"/>
<path fill-rule="evenodd" clip-rule="evenodd" d="M3215.55 1734.08C3288.39 1734.08 3347.81 1674.8 3347.81 1601.41C3347.81 1528.02 3288.25 1469.55 3215.55 1469.55C3142.84 1469.55 3082.46 1528.84 3082.46 1601.41C3082.46 1673.97 3142.7 1734.08 3215.55 1734.08Z" fill="#3696D3"/>
<path fill-rule="evenodd" clip-rule="evenodd" d="M2928.42 1465.44C3051.38 1465.44 3152.29 1365.63 3152.29 1242.26C3152.29 1118.9 3051.38 1019.08 2928.42 1019.08C2805.47 1019.08 2704.56 1119.72 2704.56 1242.26C2704.56 1364.81 2805.61 1465.44 2928.42 1465.44Z" fill="#90C040"/>
<path fill-rule="evenodd" clip-rule="evenodd" d="M2757.01 2102.39C3049.74 1992.45 3005.93 1766.12 2774.94 1633.44C2382.81 1644.4 2347.62 2120.33 2757.01 2102.39Z" fill="#16887D"/>
<path fill-rule="evenodd" clip-rule="evenodd" d="M2775.08 1633.45C2856.55 1707.66 2894.06 1820.75 2867.5 1930.7C2851.07 2001.76 2811.09 2061.05 2757.14 2102.4C2822.86 2115.68 2894.06 2102.39 2951.16 2058.72C3054.53 1979.85 3183.65 1861.28 3315.09 1979.17C3358.08 2017.37 3424.62 2021.34 3472.41 1984.64C3526.49 1943.29 3536.62 1866.89 3495.14 1812.26C3453.65 1758.45 3376.16 1748.18 3322.21 1789.53C3182.83 1896.47 3096.02 1845.67 2990.32 1717.79C2936.37 1652.2 2854.08 1622.63 2775.08 1633.45Z" fill="#3696D3"/>
<path fill-rule="evenodd" clip-rule="evenodd" d="M1775.16 2188.92C1357.42 2188.92 1147.66 1824.58 1133.01 1431.89C1133.01 1414.64 1131.09 1398.08 1129.31 1380.82C1090.84 1398.08 1048.66 1407.25 1003.75 1407.25C831.51 1407.25 691.305 1267.45 691.305 1095.9C691.305 1029.22 712.391 967.191 748.126 915.983C691.305 896.815 629.965 886.819 566.708 886.819C253.711 886.682 0 1139.71 0 1452.02C0 1764.33 253.711 2026.4 566.982 2017.36C996.635 2005.45 1380.42 1968.07 1487.63 2536.01C1491.32 2554.22 1496.8 2571.61 1503.24 2589C1644.26 2516.84 1810.07 2615.56 1818.29 2769.87C1959.31 2749.74 2068.44 2628.29 2068.44 2481.24C2068.44 2319.68 1937.41 2189.06 1775.29 2189.06" fill="#EC6C1D"/>
<path fill-rule="evenodd" clip-rule="evenodd" d="M1501.32 2589.83C1421.63 2630.9 1378.64 2714.97 1385.89 2798.08C1406.98 3070.28 1193.52 3209.93 945.287 3217.19C902.294 3218.15 859.165 3229.1 818.911 3250.05C677.884 3323.99 622.842 3498.42 697.053 3639.04C771.263 3779.66 946.246 3834.56 1087.27 3760.49C1194.48 3703.8 1254.86 3588.79 1240.21 3470.08C1219.13 3197.06 1399.58 3049.05 1649.74 2991.55C1668.08 2987.85 1685.47 2981.55 1701.9 2972.38C1779.81 2932.13 1821.84 2851.89 1818.28 2769.6C1804.59 2771.52 1789.94 2773.3 1775.29 2773.3C1652.61 2773.3 1546.36 2696.62 1503.23 2588.87C1502.27 2588.87 1501.32 2589.83 1501.32 2589.83Z" fill="#00B0AE"/>
<path d="M2319.28 188.13C2145.25 188.13 1990.4 295.886 1929.06 456.629C1772.42 819.191 1441.76 887.65 1084.4 794.545C1058.8 787.289 1031.28 783.592 1003.76 783.592C898.465 783.592 804.949 836.58 748.128 915.993C950.494 984.452 1101.65 1163.54 1129.17 1380.83C1201.6 1349.75 1260.21 1291.29 1291.29 1218.31C1446.96 856.707 1813.36 821.108 2135.8 977.196C2157.85 988.149 2180.71 997.323 2204.54 1003.62C2238.08 1012.79 2273.13 1017.86 2309.01 1018.82C2309.01 1018.82 2309.01 1018.68 2309.01 1018.55C2305.58 1018.27 2302.3 1017.86 2298.87 1017.72C2246.43 979.523 2212.75 920.237 2206.59 855.474C2204.26 830.555 2205.77 804.677 2211.25 779.758C2240.96 655.709 2365.42 579.172 2489.88 608.062C2541.5 620.521 2584.62 648.59 2615.84 686.927C2648.57 727.181 2667.32 777.841 2667.46 831.103C2666.64 832.335 2665.68 833.567 2664.86 834.8C2665 835.074 2665.13 835.347 2665.27 835.621C2671.71 826.174 2677.87 816.453 2683.48 806.457C2716.48 746.213 2735.65 677.616 2735.65 603.68C2735.65 374.477 2549.71 188.13 2318.86 188.13" fill="#FBBF09"/>
<path fill-rule="evenodd" clip-rule="evenodd" d="M2616.94 2014.22C2536.29 1909.61 2555.87 1759.82 2660.75 1680.27C2695.12 1653.71 2735.1 1638.1 2775.08 1633.44C2764.13 1623.31 2752.35 1613.87 2739.89 1605.38C2505.08 1430.53 2512.2 1182.43 2640.49 941.318C2649.94 924.203 2656.92 905.445 2661.71 885.866C2666.09 867.382 2668.15 848.898 2668.01 830.688V830.961C2593.39 943.92 2465.51 1019.09 2319.55 1019.09C2312.7 1019.09 2306.13 1017.99 2299.42 1017.72C2534.24 1190.92 2497.41 1460.1 2329.13 1665.35C2300.24 1700.4 2279.02 1741.88 2267.25 1789.4C2228.09 1954.79 2330.64 2120.33 2496.59 2159.21C2591.33 2181.81 2685.95 2157.71 2757.28 2102.26C2703.2 2091.3 2653.22 2060.91 2617.21 2014.08" fill="#90C040"/>
<path d="M6832.54 2893.15C6832.54 2869.93 6850.84 2851.63 6874.87 2851.63C6898.91 2851.63 6916.38 2869.93 6916.38 2893.15V3256.37H7132.68C7153.71 3256.37 7170.92 3273.31 7170.92 3294.61C7170.92 3315.91 7153.98 3332.84 7132.68 3332.84H6874.6C6850.57 3332.84 6832.27 3314.27 6832.27 3290.51V2893.15H6832.54Z" fill="#2C3E50"/>
<path d="M7311.3 2875.38C7311.3 2850.8 7331.78 2835.24 7358.54 2835.24C7385.31 2835.24 7405.79 2850.8 7405.79 2875.38V2879.48C7405.79 2904.06 7385.31 2920.45 7358.54 2920.45C7331.78 2920.45 7311.3 2904.06 7311.3 2879.48V2875.38ZM7317.31 3009.75C7317.31 2986.54 7335.06 2968.24 7358.27 2968.24C7381.49 2968.24 7399.78 2986.54 7399.78 3009.75V3295.15C7399.78 3318.36 7381.49 3336.11 7358.27 3336.11C7335.06 3336.11 7317.31 3318.36 7317.31 3295.15V3009.75Z" fill="#2C3E50"/>
<path d="M7593.15 3043.08H7578.95C7559.83 3043.08 7543.99 3028.06 7543.99 3008.94C7543.99 2989.82 7559.56 2974.26 7578.95 2974.26H7593.15V2947.49C7593.15 2907.89 7603.53 2877.85 7622.65 2858.73C7641.76 2839.61 7668.26 2830.06 7703.76 2830.06C7720.15 2830.06 7733.8 2831.42 7745.27 2833.33C7760.29 2835.52 7773.95 2849.17 7773.95 2867.47C7773.95 2885.77 7758.38 2902.43 7739.26 2901.61C7734.62 2901.06 7727.79 2900.24 7722.33 2900.24C7690.92 2900.24 7674.54 2917.18 7674.54 2954.86V2974.8H7738.72C7758.65 2974.8 7773.4 2989.82 7773.4 3008.94C7773.4 3028.06 7757.56 3043.08 7738.72 3043.08H7675.9V3294.88C7675.9 3317.55 7657.6 3335.85 7634.39 3335.85C7611.18 3335.85 7593.43 3317.55 7593.43 3294.88V3043.08H7593.15Z" fill="#2C3E50"/>
<path d="M8056.88 3340.75C7952.55 3340.75 7871.98 3265.1 7871.98 3153.68V3152.31C7871.98 3049.35 7944.9 2964.69 8048.14 2964.69C8162.84 2964.69 8219.37 3058.91 8219.37 3142.21C8219.37 3165.42 8201.62 3181.81 8180.32 3181.81H7954.46C7963.2 3240.52 8004.99 3273.3 8058.24 3273.3C8092.93 3273.3 8120.24 3261.01 8143.45 3241.89C8149.73 3236.97 8155.19 3234.52 8164.75 3234.52C8183.05 3234.52 8197.53 3248.72 8197.53 3267.83C8197.53 3278.21 8192.88 3286.95 8186.6 3293.23C8153.83 3322.46 8112.86 3341.03 8056.88 3341.03M8138.81 3127.19C8133.35 3073.93 8101.94 3032.42 8047.32 3032.42C7996.79 3032.42 7961.29 3071.2 7953.92 3127.19H8138.81Z" fill="#2C3E50"/>
<path d="M8639.94 3279.29C8630.38 3272.46 8623.56 3260.72 8623.56 3247.34C8623.56 3225.49 8641.31 3208.28 8663.16 3208.28C8674.63 3208.28 8682.27 3211.56 8687.74 3215.93C8727.34 3247.34 8769.67 3265.09 8821.56 3265.09C8873.45 3265.09 8906.22 3240.51 8906.22 3205V3203.64C8906.22 3169.5 8887.1 3150.93 8798.34 3130.45C8696.75 3105.87 8639.4 3075.83 8639.4 2987.89V2986.52C8639.4 2904.59 8707.67 2848.06 8802.44 2848.06C8862.52 2848.06 8910.86 2863.62 8954.01 2892.3C8963.57 2897.76 8972.31 2909.23 8972.31 2925.62C8972.31 2947.47 8954.56 2964.67 8932.71 2964.67C8924.52 2964.67 8917.69 2962.76 8910.86 2958.39C8873.99 2934.36 8838.49 2922.34 8801.07 2922.34C8751.92 2922.34 8723.24 2947.74 8723.24 2978.87V2980.24C8723.24 3017.11 8745.09 3033.49 8837.12 3055.34C8938.17 3079.92 8990.06 3116.25 8990.06 3195.17V3196.54C8990.06 3285.84 8919.88 3339.1 8819.37 3339.1C8754.37 3339.1 8693.2 3318.62 8639.94 3279.02" fill="#2C3E50"/>
<path d="M9146.56 2871.82C9146.56 2849.43 9164.31 2830.85 9187.53 2830.85C9210.74 2830.85 9229.04 2849.43 9229.04 2871.82V3138.1L9383.89 2985.98C9394.81 2975.05 9404.92 2968.23 9419.39 2968.23C9441.24 2968.23 9455.44 2985.98 9455.44 3005.91C9455.44 3019.57 9448.62 3029.95 9437.15 3040.87L9341.56 3128.81L9450.8 3271.37C9458.17 3281.75 9461.73 3289.12 9461.73 3298.68C9461.73 3321.08 9443.97 3336.1 9422.94 3336.1C9406.56 3336.1 9397 3330.64 9386.89 3317.53L9283.93 3180.43L9229.31 3232.32V3295.13C9229.31 3318.35 9211.02 3336.1 9187.8 3336.1C9164.59 3336.1 9146.84 3318.35 9146.84 3295.13V2871.82H9146.56Z" fill="#2C3E50"/>
<path d="M9608.12 2875.38C9608.12 2850.8 9628.6 2835.24 9655.36 2835.24C9682.13 2835.24 9702.61 2850.8 9702.61 2875.38V2879.48C9702.61 2904.06 9682.13 2920.45 9655.36 2920.45C9628.6 2920.45 9608.12 2904.06 9608.12 2879.48V2875.38ZM9614.13 3009.75C9614.13 2986.54 9631.88 2968.24 9655.09 2968.24C9678.31 2968.24 9696.6 2986.54 9696.6 3009.75V3295.15C9696.6 3318.36 9678.31 3336.11 9655.09 3336.11C9631.88 3336.11 9614.13 3318.36 9614.13 3295.15V3009.75Z" fill="#2C3E50"/>
<path d="M9876.31 2871.82C9876.31 2849.43 9894.06 2830.85 9917.28 2830.85C9940.49 2830.85 9958.79 2849.43 9958.79 2871.82V3295.13C9958.79 3318.35 9940.49 3336.1 9917.28 3336.1C9894.06 3336.1 9876.31 3318.35 9876.31 3295.13V2871.82Z" fill="#2C3E50"/>
<path d="M10138.5 2871.82C10138.5 2849.43 10156.2 2830.85 10179.5 2830.85C10202.7 2830.85 10221 2849.43 10221 2871.82V3295.13C10221 3318.35 10202.7 3336.1 10179.5 3336.1C10156.2 3336.1 10138.5 3318.35 10138.5 3295.13V2871.82Z" fill="#2C3E50"/>
<path d="M10382.4 3296.5C10373.6 3291.58 10366.8 3281.48 10366.8 3267.82C10366.8 3249.25 10381 3234.5 10400.1 3234.5C10406.9 3234.5 10412.9 3236.41 10417.9 3239.14C10452.5 3262.36 10488.9 3274.1 10521.6 3274.1C10557.1 3274.1 10577.6 3259.08 10577.6 3235.05V3233.68C10577.6 3205.83 10539.4 3195.99 10497.1 3183.16C10443.8 3168.14 10384.5 3146.29 10384.5 3077.47V3076.1C10384.5 3007.82 10441.1 2966.31 10512.9 2966.31C10551.1 2966.31 10591.3 2977.24 10626.2 2995.54C10638 3001.54 10645.9 3012.47 10645.9 3026.94C10645.9 3046.06 10630.9 3060.53 10611.8 3060.53C10604.9 3060.53 10600.8 3059.17 10595.4 3056.44C10566.2 3041.42 10536.1 3031.86 10510.7 3031.86C10478.8 3031.86 10460.2 3046.88 10460.2 3067.36V3068.73C10460.2 3095.22 10499 3106.42 10541.3 3120.07C10593.7 3136.46 10653.3 3160.22 10653.3 3225.22V3226.58C10653.3 3302.23 10594.6 3339.92 10519.5 3339.92C10473.8 3339.92 10423.9 3325.72 10382.4 3297.04" fill="#2C3E50"/>
<path d="M11086.1 3290.22V2896.95C11086.1 2872.92 11104.4 2854.62 11128.5 2854.62H11406.2C11426.7 2854.62 11443.9 2871.55 11443.9 2892.31C11443.9 2913.06 11427 2929.72 11406.2 2929.72H11170V3053.98H11375.4C11395.8 3053.98 11413 3070.92 11413 3092.22C11413 3113.52 11396.1 3129.09 11375.4 3129.09H11170V3257.45H11409.5C11430 3257.45 11447.2 3274.38 11447.2 3295.14C11447.2 3315.89 11430.3 3332.82 11409.5 3332.82H11128.2C11104.2 3332.82 11085.9 3314.25 11085.9 3290.49" fill="#2C3E50"/>
<path d="M11948.3 3295.13C11948.3 3318.35 11930 3336.1 11907.4 3336.1C11884.7 3336.1 11865.6 3318.35 11865.6 3295.13V3272.74C11839.1 3310.43 11801.4 3340.19 11742.7 3340.19C11658 3340.19 11575.5 3272.74 11575.5 3153.12V3151.75C11575.5 3032.41 11656.7 2964.68 11742.7 2964.68C11801.9 2964.68 11839.6 2993.9 11865.6 3028.04V2871.82C11865.6 2848.61 11883.9 2830.85 11906.5 2830.85C11929.2 2830.85 11948.1 2848.61 11948.1 2871.82V3295.13H11948.3ZM11659.1 3151.75V3153.12C11659.1 3222.76 11706.9 3268.37 11762.9 3268.37C11818.9 3268.37 11867.2 3221.94 11867.2 3153.12V3151.75C11867.2 3082.11 11818.1 3036.5 11762.9 3036.5C11707.7 3036.5 11659.1 3080.2 11659.1 3151.75Z" fill="#2C3E50"/>
<path d="M12439.4 3295.14C12439.4 3317.54 12421.1 3336.11 12397.6 3336.11C12374.1 3336.11 12356.1 3318.36 12356.1 3295.14V3276.57C12332.9 3310.71 12299.5 3339.93 12243.6 3339.93C12162.4 3339.93 12115.2 3285.31 12115.2 3201.47V3009.75C12115.2 2986.53 12133.5 2968.23 12156.2 2968.23C12178.8 2968.23 12197.7 2986.53 12197.7 3009.75V3176.89C12197.7 3232.87 12225.8 3264.28 12275 3264.28C12324.1 3264.28 12356.1 3231.51 12356.1 3175.52V3009.75C12356.1 2986.53 12374.4 2968.23 12397.6 2968.23C12420.8 2968.23 12439.4 2986.53 12439.4 3009.75V3295.14Z" fill="#2C3E50"/>
<path d="M12589.6 3154.5V3153.13C12589.6 3050.72 12668.8 2964.69 12777.2 2964.69C12833.8 2964.69 12872.8 2983.26 12903.4 3009.75C12908.9 3014.67 12916.2 3024.77 12916.2 3038.43C12916.2 3059.46 12899.3 3076.11 12878 3076.11C12867.6 3076.11 12858.9 3072.02 12853.4 3067.92C12832.1 3050.17 12809.2 3037.33 12776.4 3037.33C12716.3 3037.33 12671.8 3089.22 12671.8 3152.04V3153.4C12671.8 3217.58 12716.1 3268.65 12779.7 3268.65C12812.5 3268.65 12837.6 3255.54 12860.3 3236.7C12865.2 3232.6 12873.1 3227.69 12882.6 3227.69C12902.3 3227.69 12918.1 3244.07 12918.1 3263.74C12918.1 3274.66 12914.1 3283.67 12906.7 3289.68C12874.7 3320.27 12835.7 3340.75 12775.6 3340.75C12668.5 3340.75 12589.3 3256.91 12589.3 3154.5" fill="#2C3E50"/>
<path d="M13042.4 3228.78V3227.41C13042.4 3149.58 13103 3111.34 13191.2 3111.34C13231.4 3111.34 13260.3 3117.62 13288.2 3126.36V3117.62C13288.2 3066.28 13256.8 3038.97 13198.9 3038.97C13167.5 3038.97 13141.5 3044.43 13119.2 3053.17C13114.5 3054.53 13110.1 3055.35 13106 3055.35C13086.9 3055.35 13071.4 3040.33 13071.4 3021.22C13071.4 3006.2 13081.7 2993.09 13094 2988.44C13128.2 2975.33 13162.8 2967.14 13210.1 2967.14C13264.2 2967.14 13304.3 2981.62 13329.4 3007.56C13355.9 3033.51 13368.2 3071.74 13368.2 3118.71V3296.23C13368.2 3318.63 13350.5 3335.83 13328.1 3335.83C13304 3335.83 13287.7 3319.45 13287.7 3301.15V3287.49C13263.1 3316.72 13225.7 3339.93 13170.2 3339.93C13102.8 3339.93 13042.7 3301.15 13042.7 3228.78M13289.3 3202.83V3178.25C13268.3 3170.06 13240.1 3163.78 13207.4 3163.78C13154.1 3163.78 13122.7 3186.17 13122.7 3223.86V3225.23C13122.7 3260.18 13153.3 3279.85 13193.2 3279.85C13247.8 3279.85 13289.3 3248.44 13289.3 3202.83Z" fill="#2C3E50"/>
<path d="M13547.6 3232.86V3043.06H13534C13514.3 3043.06 13498.5 3027.49 13498.5 3007.55C13498.5 2987.61 13514.3 2972.05 13534 2972.05H13547.6V2910.6C13547.6 2888.2 13565.9 2869.63 13589.2 2869.63C13612.4 2869.63 13630.1 2888.2 13630.1 2910.6V2972.05H13694.8C13714.5 2972.05 13731.2 2987.89 13731.2 3007.55C13731.2 3027.21 13714.8 3043.06 13694.8 3043.06H13630.1V3219.75C13630.1 3251.98 13646.5 3264.82 13674.4 3264.82C13683.9 3264.82 13692.1 3262.9 13694.8 3262.9C13713.1 3262.9 13729.8 3277.93 13729.8 3297.04C13729.8 3312.06 13719.4 3324.35 13708 3329C13690.2 3335.28 13673.3 3338.55 13651.4 3338.55C13590.5 3338.55 13547.6 3311.79 13547.6 3232.86Z" fill="#2C3E50"/>
<path d="M13876.7 2875.38C13876.7 2850.8 13897.2 2835.24 13923.7 2835.24C13950.2 2835.24 13970.7 2850.8 13970.7 2875.38V2879.48C13970.7 2904.06 13950.2 2920.45 13923.7 2920.45C13897.2 2920.45 13876.7 2904.06 13876.7 2879.48V2875.38ZM13882.7 3009.75C13882.7 2986.54 13900.5 2968.24 13923.7 2968.24C13946.9 2968.24 13965.2 2986.54 13965.2 3009.75V3295.15C13965.2 3318.36 13946.9 3336.11 13923.7 3336.11C13900.5 3336.11 13882.7 3318.36 13882.7 3295.15V3009.75Z" fill="#2C3E50"/>
<path d="M14120.3 3154.5V3153.13C14120.3 3050.17 14202.3 2964.69 14312.9 2964.69C14423.5 2964.69 14504.6 3048.53 14504.6 3151.77V3153.13C14504.6 3255.54 14422.7 3340.75 14311.5 3340.75C14200.3 3340.75 14120.3 3256.91 14120.3 3154.5ZM14422.1 3154.5V3153.13C14422.1 3089.77 14376.5 3037.06 14311.5 3037.06C14246.5 3037.06 14203.1 3088.95 14203.1 3151.77V3153.13C14203.1 3215.94 14248.7 3268.38 14312.9 3268.38C14377 3268.38 14422.1 3216.49 14422.1 3154.5Z" fill="#2C3E50"/>
<path d="M14655.6 3009.75C14655.6 2986.54 14673.4 2968.24 14696.6 2968.24C14719.8 2968.24 14738.1 2986.54 14738.1 3009.75V3027.5C14761.3 2994.18 14794.9 2964.69 14850.6 2964.69C14931.7 2964.69 14979 3019.31 14979 3102.61V3295.15C14979 3318.36 14961.2 3336.11 14938 3336.11C14914.8 3336.11 14896.2 3318.36 14896.2 3295.15V3128C14896.2 3072.02 14868.1 3040.06 14819.2 3040.06C14770.3 3040.06 14737.8 3073.38 14737.8 3129.37V3295.15C14737.8 3318.36 14719.5 3336.11 14696.3 3336.11C14673.1 3336.11 14655.3 3318.36 14655.3 3295.15V3009.75H14655.6Z" fill="#2C3E50"/>
</svg>
