<svg width="24" height="26" viewBox="0 0 24 26" fill="none" xmlns="http://www.w3.org/2000/svg">
<path d="M23.0209 11.6458C22.5724 11.6458 22.2084 11.2818 22.2084 10.8333C22.2084 7.72192 20.9974 4.79803 18.7981 2.59777C18.4807 2.28039 18.4807 1.76583 18.7981 1.44845C19.1155 1.13107 19.63 1.13107 19.9476 1.44845C22.4534 3.95518 23.8334 7.28869 23.8334 10.8333C23.8334 11.2818 23.4694 11.6458 23.0209 11.6458Z" fill="#ffffff"/>
<path d="M0.8125 11.6458C0.363998 11.6458 0 11.2818 0 10.8333C0 7.28869 1.38022 3.95518 3.88695 1.44944C4.20433 1.13206 4.71909 1.13206 5.03647 1.44944C5.35385 1.76682 5.35385 2.28158 5.03647 2.59896C2.83621 4.79803 1.625 7.72192 1.625 10.8333C1.625 11.2818 1.261 11.6458 0.8125 11.6458Z" fill="#ffffff"/>
<path d="M11.9165 26C9.67618 26 7.854 24.1778 7.854 21.9375C7.854 21.489 8.218 21.125 8.6665 21.125C9.11501 21.125 9.479 21.489 9.479 21.9375C9.479 23.282 10.572 24.375 11.9165 24.375C13.2608 24.375 14.354 23.282 14.354 21.9375C14.354 21.489 14.718 21.125 15.1665 21.125C15.615 21.125 15.979 21.489 15.979 21.9375C15.979 24.1778 14.1568 26 11.9165 26Z" fill="#ffffff"/>
<path d="M20.8542 22.75H2.97922C1.93364 22.75 1.08325 21.8996 1.08325 20.8542C1.08325 20.2994 1.32486 19.7741 1.74638 19.4133C3.394 18.0212 4.33325 15.9977 4.33325 13.8538V10.8333C4.33325 6.65174 7.735 3.24999 11.9167 3.24999C16.0982 3.24999 19.5 6.65174 19.5 10.8333V13.8538C19.5 15.9977 20.4392 18.0212 22.0761 19.4058C22.5084 19.7741 22.75 20.2994 22.75 20.8542C22.75 21.8996 21.8996 22.75 20.8542 22.75ZM11.9167 4.87499C8.63081 4.87499 5.95825 7.54755 5.95825 10.8333V13.8538C5.95825 16.4763 4.80893 18.9529 2.80585 20.6461C2.76796 20.6787 2.70825 20.7459 2.70825 20.8542C2.70825 21.0014 2.83183 21.125 2.97922 21.125H20.8542C21.0014 21.125 21.125 21.0014 21.125 20.8542C21.125 20.7459 21.0655 20.6787 21.0296 20.6483C19.0243 18.9529 17.875 16.4763 17.875 13.8538V10.8333C17.875 7.54755 15.2024 4.87499 11.9167 4.87499Z" fill="#ffffff"/>
<path d="M11.9165 4.875C11.468 4.875 11.104 4.511 11.104 4.0625V0.8125C11.104 0.363998 11.468 0 11.9165 0C12.365 0 12.729 0.363998 12.729 0.8125V4.0625C12.729 4.511 12.365 4.875 11.9165 4.875Z" fill="#ffffff"/>
</svg>
