<svg width="218" height="84" viewBox="0 0 218 84" fill="none" xmlns="http://www.w3.org/2000/svg">
<path d="M88.2041 61.9232V21.8014C88.2041 20.3939 88.7144 19.1928 89.7327 18.1982C90.751 17.2037 91.9901 16.7052 93.4451 16.7052H109.902C114.753 16.7052 118.71 17.9419 121.77 20.4176C125.8 23.7668 127.816 28.3052 127.816 34.0328C127.816 39.7605 125.632 44.6644 121.262 48.0136C118.447 50.2472 114.661 51.3629 109.904 51.3629H98.6885V61.9208C98.6885 63.3308 98.1663 64.5319 97.1243 65.5264C96.0775 66.521 94.8551 67.0195 93.4451 67.0195C92.0352 67.0195 90.751 66.521 89.7327 65.5264C88.7144 64.5319 88.2041 63.3308 88.2041 61.9208V61.9232ZM98.6885 25.8794V42.1887H108.302C110.73 42.1887 112.598 41.7519 113.908 40.8784C116.094 39.4709 117.186 37.1898 117.186 34.0328C117.186 30.8759 116.142 28.6945 114.058 27.3344C112.648 26.3636 110.804 25.877 108.523 25.877H98.6909L98.6885 25.8794Z" fill="#2C3E50"/>
<path d="M126.527 62.2128C126.527 61.6787 126.719 60.9026 127.11 59.8819L141.091 21.4359C142.304 17.7947 144.756 15.9741 148.445 15.9741C152.133 15.9741 154.609 17.7947 155.872 21.4359L169.634 59.8819C169.974 60.7079 170.145 61.4841 170.145 62.2128C170.145 63.6702 169.646 64.8333 168.652 65.7092C167.657 66.5827 166.382 67.0195 164.83 67.0195C162.062 67.0195 160.389 65.854 159.805 63.5254L157.256 56.2431H139.271L136.721 63.5254C135.895 65.8564 134.172 67.0195 131.552 67.0195C130.094 67.0195 128.893 66.559 127.946 65.6356C126.999 64.7146 126.524 63.5729 126.524 62.2128H126.527ZM148.371 29.155L141.891 47.7953H154.707L148.371 29.155Z" fill="#2C3E50"/>
<path d="M173.803 61.5577C173.803 60.2949 174.19 59.2528 174.968 58.4268L189.241 41.6071L175.478 24.7139C174.652 23.5983 174.242 22.5538 174.242 21.583C174.242 20.0781 174.859 18.7797 176.098 17.6879C177.335 16.596 178.756 16.05 180.359 16.05C182.35 16.05 183.879 16.8025 184.945 18.3074L196.013 33.1617L206.934 18.3074C208.002 16.8025 209.531 16.05 211.52 16.05C213.122 16.05 214.53 16.5841 215.743 17.6523C216.956 18.7204 217.563 20.0307 217.563 21.5854C217.563 22.6037 217.174 23.6481 216.398 24.7162L202.783 41.3911L216.835 58.4292C217.611 59.2552 218 60.2735 218 61.4865C218 62.9913 217.392 64.2897 216.179 65.3816C214.966 66.4735 213.557 67.0194 211.957 67.0194C209.965 67.0194 208.437 66.267 207.371 64.7621L196.011 49.6158L184.432 64.7621C183.364 66.267 181.811 67.0194 179.772 67.0194C178.17 67.0194 176.774 66.4972 175.585 65.4552C174.394 64.4108 173.8 63.1148 173.8 61.56L173.803 61.5577Z" fill="#2C3E50"/>
<path d="M88.204 74.0241C88.204 73.623 88.515 73.312 88.9161 73.312H91.3729C93.2552 73.312 94.4277 74.3801 94.4277 75.999V76.0227C94.4277 77.8267 92.9822 78.7667 91.2114 78.7667H89.614V80.7083C89.614 81.0976 89.303 81.4085 88.9138 81.4085C88.5245 81.4085 88.2017 81.0976 88.2017 80.7083V74.0241H88.204ZM91.2589 77.492C92.3271 77.492 92.9917 76.8962 92.9917 76.056V76.0322C92.9917 75.0899 92.3152 74.5962 91.2589 74.5962H89.6164V77.4896H91.2589V77.492Z" fill="#2C3E50"/>
<path d="M95.7998 73.5992C95.7998 73.2195 96.0989 72.9109 96.4882 72.9109C96.8774 72.9109 97.1884 73.2218 97.1884 73.5992V80.7178C97.1884 81.1095 96.8774 81.4062 96.4882 81.4062C96.0989 81.4062 95.7998 81.1071 95.7998 80.7178V73.5992Z" fill="#2C3E50"/>
<path d="M98.603 79.6045V79.5808C98.603 78.2706 99.6261 77.6297 101.107 77.6297C101.784 77.6297 102.268 77.7341 102.738 77.8813V77.7317C102.738 76.8701 102.209 76.412 101.233 76.412C100.704 76.412 100.267 76.5046 99.8895 76.6541C99.8088 76.6778 99.74 76.6873 99.6712 76.6873C99.3507 76.6873 99.0849 76.4357 99.0849 76.1129C99.0849 75.8613 99.2582 75.6429 99.4647 75.5622C100.039 75.3438 100.625 75.2062 101.416 75.2062C102.323 75.2062 103.001 75.4483 103.426 75.885C103.875 76.3218 104.081 76.9651 104.081 77.7579V80.7439C104.081 81.1237 103.782 81.4109 103.403 81.4109C103.001 81.4109 102.726 81.1356 102.726 80.8246V80.5944C102.313 81.0881 101.682 81.4774 100.751 81.4774C99.6142 81.4774 98.603 80.8222 98.603 79.6045ZM102.762 79.1678V78.7548C102.406 78.6171 101.936 78.5127 101.383 78.5127C100.488 78.5127 99.9584 78.8925 99.9584 79.5238V79.5476C99.9584 80.1339 100.476 80.4662 101.14 80.4662C102.059 80.4662 102.759 79.9369 102.759 79.1678H102.762Z" fill="#2C3E50"/>
<path d="M105.98 79.6733V76.4808H105.75C105.418 76.4808 105.152 76.2173 105.152 75.885C105.152 75.5527 105.418 75.2868 105.75 75.2868H105.98V74.2543C105.98 73.8745 106.291 73.5659 106.68 73.5659C107.07 73.5659 107.369 73.8769 107.369 74.2543V75.2868H108.461C108.793 75.2868 109.068 75.5503 109.068 75.885C109.068 76.2197 108.793 76.4808 108.461 76.4808H107.369V79.4549C107.369 79.9938 107.644 80.2121 108.114 80.2121C108.276 80.2121 108.413 80.1789 108.458 80.1789C108.769 80.1789 109.045 80.4305 109.045 80.7533C109.045 81.0049 108.874 81.2114 108.677 81.2922C108.378 81.3966 108.09 81.4536 107.723 81.4536C106.699 81.4536 105.976 81.0049 105.976 79.6733H105.98Z" fill="#2C3E50"/>
<path d="M110.016 79.6045V79.5808C110.016 78.2706 111.039 77.6297 112.52 77.6297C113.196 77.6297 113.681 77.7341 114.151 77.8813V77.7317C114.151 76.8701 113.624 76.412 112.646 76.412C112.116 76.412 111.682 76.5046 111.302 76.6541C111.221 76.6778 111.153 76.6873 111.084 76.6873C110.763 76.6873 110.497 76.4357 110.497 76.1129C110.497 75.8613 110.668 75.6429 110.877 75.5622C111.452 75.3438 112.038 75.2062 112.828 75.2062C113.735 75.2062 114.412 75.4483 114.839 75.885C115.288 76.3218 115.494 76.9651 115.494 77.7579V80.7439C115.494 81.1237 115.195 81.4109 114.818 81.4109C114.414 81.4109 114.141 81.1356 114.141 80.8246V80.5944C113.728 81.0881 113.097 81.4774 112.166 81.4774C111.029 81.4774 110.018 80.8222 110.018 79.6045H110.016ZM114.174 79.1678V78.7548C113.818 78.6171 113.348 78.5127 112.795 78.5127C111.9 78.5127 111.371 78.8925 111.371 79.5238V79.5476C111.371 80.1339 111.888 80.4662 112.553 80.4662C113.472 80.4662 114.172 79.9369 114.172 79.1678H114.174Z" fill="#2C3E50"/>
<path d="M117.474 76.4808H117.232C116.911 76.4808 116.645 76.2292 116.645 75.9064C116.645 75.5836 116.909 75.3201 117.232 75.3201H117.474V74.8715C117.474 74.2045 117.645 73.6989 117.967 73.3785C118.29 73.058 118.739 72.8966 119.335 72.8966C119.61 72.8966 119.84 72.9203 120.035 72.9536C120.286 72.9868 120.517 73.2171 120.517 73.528C120.517 73.8389 120.253 74.1143 119.93 74.1024C119.85 74.0905 119.736 74.0787 119.643 74.0787C119.114 74.0787 118.839 74.3659 118.839 74.9973V75.3296H119.919C120.251 75.3296 120.505 75.5812 120.505 75.904C120.505 76.2268 120.241 76.4784 119.919 76.4784H118.862V80.7154C118.862 81.0952 118.551 81.4038 118.162 81.4038C117.773 81.4038 117.474 81.0928 117.474 80.7154V76.4784V76.4808Z" fill="#2C3E50"/>
<path d="M121.036 78.3537V78.33C121.036 76.5948 122.415 75.1611 124.274 75.1611C126.133 75.1611 127.5 76.5735 127.5 78.3086V78.3323C127.5 80.0556 126.121 81.4917 124.25 81.4917C122.38 81.4917 121.034 80.0793 121.034 78.3561L121.036 78.3537ZM126.111 78.3537V78.33C126.111 77.2618 125.342 76.3788 124.25 76.3788C123.158 76.3788 122.423 77.2523 122.423 78.3086V78.3323C122.423 79.3886 123.192 80.274 124.272 80.274C125.352 80.274 126.109 79.4005 126.109 78.3561L126.111 78.3537Z" fill="#2C3E50"/>
<path d="M128.919 75.9183C128.919 75.529 129.218 75.218 129.608 75.218C129.997 75.218 130.308 75.529 130.308 75.9183V76.5378C130.628 75.7806 131.226 75.2062 131.836 75.2062C132.273 75.2062 132.525 75.4934 132.525 75.8945C132.525 76.2625 132.285 76.5022 131.974 76.5592C130.987 76.7324 130.31 77.4896 130.31 78.9257V80.7178C130.31 81.0976 129.999 81.4061 129.61 81.4061C129.221 81.4061 128.922 81.1071 128.922 80.7178V75.9183H128.919Z" fill="#2C3E50"/>
<path d="M133.664 75.9183C133.664 75.529 133.963 75.2181 134.353 75.2181C134.742 75.2181 135.053 75.529 135.053 75.9183V76.2055C135.442 75.6667 135.971 75.1611 136.902 75.1611C137.775 75.1611 138.395 75.586 138.715 76.2293C139.2 75.586 139.841 75.1611 140.759 75.1611C142.081 75.1611 142.884 75.999 142.884 77.4802V80.7178C142.884 81.1095 142.584 81.4062 142.195 81.4062C141.806 81.4062 141.495 81.1071 141.495 80.7178V77.9051C141.495 76.9414 141.046 76.4239 140.268 76.4239C139.489 76.4239 138.969 76.9532 138.969 77.9288V80.7178C138.969 81.1095 138.661 81.4062 138.281 81.4062C137.901 81.4062 137.581 81.1071 137.581 80.7178V77.8932C137.581 76.9509 137.12 76.4239 136.351 76.4239C135.582 76.4239 135.055 76.9983 135.055 77.9288V80.7178C135.055 81.1095 134.744 81.4062 134.355 81.4062C133.966 81.4062 133.667 81.1071 133.667 80.7178V75.9183H133.664Z" fill="#2C3E50"/>
<path d="M144.182 79.6045V79.5808C144.182 78.2706 145.205 77.6297 146.686 77.6297C147.363 77.6297 147.847 77.7341 148.317 77.8813V77.7317C148.317 76.8701 147.79 76.412 146.812 76.412C146.283 76.412 145.848 76.5046 145.468 76.6541C145.388 76.6778 145.319 76.6873 145.25 76.6873C144.93 76.6873 144.664 76.4357 144.664 76.1129C144.664 75.8613 144.835 75.6429 145.044 75.5622C145.618 75.3438 146.204 75.2062 146.995 75.2062C147.901 75.2062 148.578 75.4483 149.005 75.885C149.454 76.3218 149.66 76.9651 149.66 77.7579V80.7439C149.66 81.1237 149.361 81.4109 148.984 81.4109C148.58 81.4109 148.307 81.1356 148.307 80.8246V80.5944C147.894 81.0881 147.263 81.4774 146.332 81.4774C145.195 81.4774 144.184 80.8222 144.184 79.6045H144.182ZM148.338 79.1678V78.7548C147.982 78.6171 147.512 78.5127 146.959 78.5127C146.064 78.5127 145.535 78.8925 145.535 79.5238V79.5476C145.535 80.1339 146.052 80.4662 146.717 80.4662C147.636 80.4662 148.336 79.9369 148.336 79.1678H148.338Z" fill="#2C3E50"/>
<path d="M154.937 73.9552C154.937 73.566 155.248 73.255 155.649 73.255C156.05 73.255 156.349 73.566 156.349 73.9552V76.6541H160.185V73.9552C160.185 73.566 160.493 73.255 160.885 73.255C161.277 73.255 161.597 73.566 161.597 73.9552V80.7083C161.597 81.0975 161.286 81.4085 160.885 81.4085C160.484 81.4085 160.185 81.0975 160.185 80.7083V77.9643H156.349V80.7083C156.349 81.0975 156.038 81.4085 155.649 81.4085C155.26 81.4085 154.937 81.0975 154.937 80.7083V73.9552Z" fill="#2C3E50"/>
<path d="M168.896 80.7178C168.896 81.0976 168.585 81.4062 168.196 81.4062C167.807 81.4062 167.496 81.1071 167.496 80.7178V80.4069C167.107 80.9813 166.542 81.475 165.602 81.475C164.234 81.475 163.442 80.5564 163.442 79.1441V75.9183C163.442 75.529 163.753 75.2181 164.13 75.2181C164.507 75.2181 164.83 75.529 164.83 75.9183V78.7311C164.83 79.6734 165.3 80.2004 166.126 80.2004C166.952 80.2004 167.493 79.6497 167.493 78.7073V75.9159C167.493 75.5266 167.804 75.2157 168.194 75.2157C168.583 75.2157 168.894 75.5266 168.894 75.9159V80.7154L168.896 80.7178Z" fill="#2C3E50"/>
<path d="M170.99 82.6713C170.75 82.5787 170.601 82.3841 170.601 82.1206C170.601 81.8097 170.864 81.5462 171.187 81.5462C171.289 81.5462 171.37 81.5699 171.438 81.6031C171.991 81.9141 172.599 82.085 173.299 82.085C174.541 82.085 175.217 81.4417 175.217 80.2241V79.7541C174.712 80.4092 174.08 80.8673 173.081 80.8673C171.657 80.8673 170.325 79.811 170.325 78.0308V78.0071C170.325 76.215 171.669 75.1587 173.081 75.1587C174.104 75.1587 174.735 75.6287 175.205 76.1912V75.904C175.205 75.5266 175.516 75.2157 175.894 75.2157C176.271 75.2157 176.594 75.5266 176.594 75.9159V80.1078C176.594 81.1308 176.331 81.888 175.825 82.3936C175.272 82.9443 174.424 83.2077 173.333 83.2077C172.483 83.2077 171.723 83.025 170.99 82.6689V82.6713ZM175.227 78.0213V77.9976C175.227 77.0101 174.413 76.3336 173.447 76.3336C172.48 76.3336 171.723 77.0006 171.723 77.9976V78.0213C171.723 79.0088 172.495 79.6852 173.447 79.6852C174.398 79.6852 175.227 79.0064 175.227 78.0213Z" fill="#2C3E50"/>
<path d="M181.954 74.0241C181.954 73.623 182.265 73.312 182.666 73.312H184.952C187.477 73.312 189.224 75.0448 189.224 77.3092V77.333C189.224 79.5951 187.477 81.3516 184.952 81.3516H182.666C182.262 81.3516 181.954 81.0406 181.954 80.6395V74.0241ZM184.949 80.065C186.637 80.065 187.738 78.9281 187.738 77.3543V77.3306C187.738 75.7569 186.637 74.5985 184.949 74.5985H183.366V80.065H184.949Z" fill="#2C3E50"/>
<path d="M190.758 73.6562C190.758 73.2432 191.102 72.9797 191.548 72.9797C191.994 72.9797 192.341 73.2432 192.341 73.6562V73.7251C192.341 74.1381 191.997 74.4134 191.548 74.4134C191.099 74.4134 190.758 74.1381 190.758 73.7251V73.6562ZM190.86 75.9183C190.86 75.529 191.159 75.2181 191.548 75.2181C191.937 75.2181 192.248 75.529 192.248 75.9183V80.7178C192.248 81.1095 191.94 81.4062 191.548 81.4062C191.156 81.4062 190.86 81.1071 190.86 80.7178V75.9183Z" fill="#2C3E50"/>
<path d="M194.422 82.6713C194.183 82.5787 194.033 82.3841 194.033 82.1206C194.033 81.8097 194.297 81.5462 194.619 81.5462C194.722 81.5462 194.802 81.5699 194.871 81.6031C195.424 81.9141 196.032 82.085 196.732 82.085C197.973 82.085 198.65 81.4417 198.65 80.2241V79.7541C198.144 80.4092 197.513 80.8673 196.514 80.8673C195.089 80.8673 193.758 79.811 193.758 78.0308V78.0071C193.758 76.215 195.101 75.1587 196.514 75.1587C197.537 75.1587 198.168 75.6287 198.638 76.1912V75.904C198.638 75.5266 198.949 75.2157 199.326 75.2157C199.704 75.2157 200.027 75.5266 200.027 75.9159V80.1078C200.027 81.1308 199.763 81.888 199.258 82.3936C198.705 82.9443 197.857 83.2077 196.765 83.2077C195.915 83.2077 195.156 83.025 194.422 82.6689V82.6713ZM198.659 78.0213V77.9976C198.659 77.0101 197.845 76.3336 196.879 76.3336C195.913 76.3336 195.156 77.0006 195.156 77.9976V78.0213C195.156 79.0088 195.927 79.6852 196.879 79.6852C197.831 79.6852 198.659 79.0064 198.659 78.0213Z" fill="#2C3E50"/>
<path d="M201.755 73.6562C201.755 73.2432 202.099 72.9797 202.545 72.9797C202.991 72.9797 203.338 73.2432 203.338 73.6562V73.7251C203.338 74.1381 202.994 74.4134 202.545 74.4134C202.096 74.4134 201.755 74.1381 201.755 73.7251V73.6562ZM201.857 75.9183C201.857 75.529 202.156 75.2181 202.545 75.2181C202.934 75.2181 203.245 75.529 203.245 75.9183V80.7178C203.245 81.1095 202.937 81.4062 202.545 81.4062C202.153 81.4062 201.857 81.1071 201.857 80.7178V75.9183Z" fill="#2C3E50"/>
<path d="M205.348 79.6733V76.4808H205.118C204.786 76.4808 204.52 76.2173 204.52 75.885C204.52 75.5527 204.786 75.2868 205.118 75.2868H205.348V74.2543C205.348 73.8745 205.659 73.5659 206.049 73.5659C206.438 73.5659 206.737 73.8769 206.737 74.2543V75.2868H207.829C208.161 75.2868 208.437 75.5503 208.437 75.885C208.437 76.2197 208.161 76.4808 207.829 76.4808H206.737V79.4549C206.737 79.9938 207.012 80.2121 207.482 80.2121C207.644 80.2121 207.781 80.1789 207.827 80.1789C208.137 80.1789 208.413 80.4305 208.413 80.7533C208.413 81.0049 208.242 81.2114 208.045 81.2922C207.746 81.3966 207.459 81.4536 207.091 81.4536C206.068 81.4536 205.344 81.0049 205.344 79.6733H205.348Z" fill="#2C3E50"/>
<path d="M209.384 79.6045V79.5808C209.384 78.2706 210.407 77.6297 211.888 77.6297C212.564 77.6297 213.048 77.7341 213.518 77.8813V77.7317C213.518 76.8701 212.991 76.412 212.014 76.412C211.487 76.412 211.05 76.5046 210.67 76.6541C210.589 76.6778 210.521 76.6873 210.452 76.6873C210.131 76.6873 209.865 76.4357 209.865 76.1129C209.865 75.8613 210.036 75.6429 210.245 75.5622C210.82 75.3438 211.406 75.2062 212.196 75.2062C213.103 75.2062 213.78 75.4483 214.207 75.885C214.655 76.3218 214.862 76.9651 214.862 77.7579V80.7439C214.862 81.1237 214.563 81.4109 214.185 81.4109C213.782 81.4109 213.509 81.1356 213.509 80.8246V80.5944C213.096 81.0881 212.465 81.4774 211.534 81.4774C210.397 81.4774 209.386 80.8222 209.386 79.6045H209.384ZM213.542 79.1678V78.7548C213.186 78.6171 212.716 78.5127 212.163 78.5127C211.268 78.5127 210.739 78.8925 210.739 79.5238V79.5476C210.739 80.1339 211.256 80.4662 211.921 80.4662C212.84 80.4662 213.54 79.9369 213.54 79.1678H213.542Z" fill="#2C3E50"/>
<path d="M216.611 73.5992C216.611 73.2195 216.91 72.9109 217.3 72.9109C217.689 72.9109 218 73.2218 218 73.5992V80.7178C218 81.1095 217.691 81.4062 217.3 81.4062C216.908 81.4062 216.611 81.1071 216.611 80.7178V73.5992Z" fill="#2C3E50"/>
<path d="M39.9405 12.6521C42.834 12.2541 44.8124 9.2606 44.3593 5.96577C43.9062 2.67095 41.1933 0.322537 38.2997 0.720444C35.4062 1.11835 33.4279 4.1119 33.8809 7.40672C34.334 10.7015 37.047 13.05 39.9405 12.6521Z" fill="#E1531A"/>
<path d="M8.50455 70.8482C11.3981 70.4503 13.3922 67.5715 12.9586 64.4182C12.525 61.2649 9.82778 59.0313 6.93425 59.4292C4.04073 59.8271 2.04659 62.7059 2.48022 65.8592C2.91384 69.0124 5.61103 71.2461 8.50455 70.8482Z" fill="#3995D2"/>
<path d="M59.3737 73.7198C59.6437 70.8366 57.903 68.3158 55.4857 68.0894C53.0685 67.863 50.89 70.0168 50.62 72.9001C50.35 75.7833 52.0907 78.3041 54.508 78.5305C56.9252 78.7569 59.1037 76.603 59.3737 73.7198Z" fill="#00B0AE"/>
<path d="M75.3153 38.1131C77.6422 38.1131 79.5285 35.9738 79.5285 33.3349C79.5285 30.696 77.6422 28.5568 75.3153 28.5568C72.9884 28.5568 71.1021 30.696 71.1021 33.3349C71.1021 35.9738 72.9884 38.1131 75.3153 38.1131Z" fill="#BB880D"/>
<path d="M45.9223 47.0641C45.844 44.8448 45.5781 42.6562 44.9657 40.7739C41.1489 30.3512 30.0212 45.3171 27.358 49.9979C25.9836 52.2339 24.5096 55.0871 23.2468 58.1894C18.9102 57.6933 14.6993 56.2763 11.1459 53.8361C3.56926 48.8206 -0.558521 39.4281 0.0610014 30.3085C0.314982 20.8709 5.43257 10.6689 15.2357 8.93381C27.0494 7.13696 37.211 18.2456 41.3055 28.3811C42.7986 31.8941 44.0305 35.7845 44.9942 39.8055C45.552 42.1697 46.1027 44.643 45.9223 47.0641Z" fill="#3696D3"/>
<path d="M45.9223 47.0641C45.9009 47.3465 45.8725 47.6219 45.8321 47.8972L45.8202 47.9993C45.1675 52.7964 40.4439 55.7469 35.9435 57.088C31.9462 58.2867 27.536 58.6926 23.2468 58.1917C24.5072 55.0894 25.9836 52.2339 27.358 50.0003C30.0212 45.3218 41.1465 30.3559 44.9657 40.7763C45.5805 42.6562 45.844 44.8471 45.9223 47.0664V47.0641Z" fill="#16887D"/>
<path d="M45.8369 52.8083C44.8068 67.8644 40.8926 83.9506 28.73 83.1863L28.6398 83.1697C17.3508 80.7367 19.169 68.1919 23.2445 58.1918C27.5361 58.6926 31.944 58.2867 35.9412 57.088C40.4393 55.7469 45.1652 52.7965 45.8179 47.9993L45.8298 47.8972C45.8702 47.6219 45.8963 47.3466 45.92 47.0641C45.9936 49.0176 45.9248 50.9877 45.8346 52.8083H45.8369Z" fill="#90C040"/>
<path d="M64.8855 32.7534L64.8427 32.8839C64.3182 34.2061 63.3141 36.1145 62.0371 38.1131C61.8306 38.0039 61.6217 37.9066 61.4152 37.8069C60.9025 37.5885 60.3779 37.382 59.8866 37.1518C52.3526 33.6577 46.3164 34.028 47.9756 41.7044C45.9129 33.1237 45.7491 19.8692 48.8823 12.9904C51.885 5.64156 60.9025 1.62534 65.8373 9.46313C69.92 16.3515 67.9783 25.49 64.8878 32.751L64.8855 32.7534Z" fill="#EC6C1D"/>
<path d="M62.0347 38.113C59.1199 42.6657 54.7642 47.6219 51.434 46.6724C51.3462 46.6511 51.2489 46.6178 51.161 46.5846C50.9759 46.5181 50.8002 46.4327 50.627 46.3116C50.5391 46.2689 50.4632 46.2143 50.3872 46.1478C49.7107 45.6565 49.0888 44.8376 48.5643 43.6484C48.5429 43.6057 48.531 43.5724 48.5215 43.5273C48.3791 43.1998 48.2699 42.8508 48.1821 42.5114C48.1061 42.2503 48.0397 41.9773 47.9756 41.7044C46.3164 34.028 52.3526 33.6577 59.8866 37.1517C60.3779 37.382 60.9025 37.5885 61.4152 37.8068C61.6217 37.9042 61.8306 38.0038 62.0371 38.113H62.0347Z" fill="#E1531A"/>
<path d="M48.5192 43.5273C48.4527 43.3849 48.3886 43.2329 48.334 43.0787C48.2794 42.8935 48.2367 42.7084 48.1821 42.5114C48.27 42.8508 48.3791 43.1997 48.5216 43.5273H48.5192Z" fill="#E1531A"/>
<path d="M67.8762 60.1666L67.7884 60.2093C59.7749 65.0896 50.6791 54.5221 48.5191 44.8922C48.2034 43.703 48.0277 42.642 47.9731 41.7044C48.0396 41.9773 48.1037 42.2503 48.1797 42.5114C48.2675 42.8508 48.3767 43.1998 48.5191 43.5273C48.531 43.5701 48.5404 43.6033 48.5618 43.6484C49.0864 44.8376 49.7083 45.6565 50.3848 46.1478C50.4607 46.2143 50.5367 46.2689 50.6245 46.3116C50.8002 46.4327 50.9734 46.5181 51.1586 46.5846C51.2464 46.6178 51.3437 46.6511 51.4316 46.6724C54.7618 47.6219 59.1174 42.6657 62.0323 38.113C70.2641 42.4141 77.1311 53.2237 67.8738 60.1666H67.8762Z" fill="#FBBF09"/>
</svg>
