<svg width="70" height="111" viewBox="0 0 70 111" fill="none" xmlns="http://www.w3.org/2000/svg">
<path d="M3.51685 100.623V81.0626C3.51685 80.3764 3.76565 79.7909 4.2621 79.306C4.75855 78.8211 5.36261 78.5781 6.07199 78.5781H14.095C16.4604 78.5781 18.3895 79.181 19.8811 80.388C21.8461 82.0208 22.8286 84.2334 22.8286 87.0258C22.8286 89.8182 21.7639 92.209 19.6335 93.8419C18.261 94.9308 16.4153 95.4747 14.0962 95.4747H8.6283V100.622C8.6283 101.309 8.37371 101.895 7.86569 102.38C7.35535 102.865 6.75938 103.108 6.07199 103.108C5.3846 103.108 4.75855 102.865 4.2621 102.38C3.76565 101.895 3.51685 101.309 3.51685 100.622V100.623ZM8.6283 83.0508V91.002H13.3151C14.4989 91.002 15.4096 90.7891 16.0484 90.3632C17.1142 89.677 17.6465 88.5649 17.6465 87.0258C17.6465 85.4867 17.1374 84.4232 16.1213 83.7601C15.4339 83.2868 14.5348 83.0496 13.4227 83.0496H8.62946L8.6283 83.0508Z" fill="white"/>
<path d="M22.2001 100.764C22.2001 100.504 22.2939 100.126 22.4848 99.628L29.3009 80.8844C29.8922 79.1092 31.0876 78.2217 32.8859 78.2217C34.6843 78.2217 35.8912 79.1092 36.5069 80.8844L43.2165 99.628C43.3819 100.031 43.4653 100.409 43.4653 100.764C43.4653 101.475 43.2223 102.042 42.7374 102.469C42.2525 102.895 41.6311 103.108 40.8742 103.108C39.5249 103.108 38.7091 102.54 38.4244 101.404L37.1815 97.854H28.4133L27.1704 101.404C26.7677 102.541 25.9275 103.108 24.65 103.108C23.9394 103.108 23.3539 102.883 22.8922 102.433C22.4304 101.984 22.199 101.427 22.199 100.764H22.2001ZM32.8501 84.6477L29.6908 93.7354H35.9387L32.8501 84.6477Z" fill="white"/>
<path d="M45.2485 100.445C45.2485 99.8293 45.4371 99.3213 45.8167 98.9186L52.7751 90.7185L46.0655 82.4826C45.6628 81.9387 45.4626 81.4295 45.4626 80.9562C45.4626 80.2225 45.7634 79.5895 46.3675 79.0572C46.9704 78.5248 47.6636 78.2587 48.4447 78.2587C49.4156 78.2587 50.1609 78.6255 50.6805 79.3592L56.0766 86.6011L61.401 79.3592C61.9217 78.6255 62.667 78.2587 63.6367 78.2587C64.4179 78.2587 65.1041 78.5191 65.6954 79.0398C66.2868 79.5606 66.583 80.1993 66.583 80.9573C66.583 81.4538 66.3932 81.963 66.0148 82.4837L59.377 90.6132L66.2278 98.9197C66.6062 99.3225 66.796 99.8189 66.796 100.41C66.796 101.144 66.4997 101.777 65.9084 102.309C65.317 102.842 64.6296 103.108 63.8497 103.108C62.8788 103.108 62.1335 102.741 61.6139 102.007L56.0755 94.623L50.4305 102.007C49.9098 102.741 49.1529 103.108 48.1589 103.108C47.3778 103.108 46.6973 102.853 46.1175 102.345C45.5366 101.836 45.2473 101.204 45.2473 100.446L45.2485 100.445Z" fill="white"/>
<path d="M3.51678 106.523C3.51678 106.327 3.66838 106.176 3.86395 106.176H5.06168C5.97936 106.176 6.55102 106.696 6.55102 107.486V107.497C6.55102 108.377 5.84627 108.835 4.98298 108.835H4.20417V109.781C4.20417 109.971 4.05258 110.123 3.86279 110.123C3.67301 110.123 3.51562 109.971 3.51562 109.781V106.523H3.51678ZM5.00613 108.213C5.52688 108.213 5.8509 107.923 5.8509 107.513V107.502C5.8509 107.042 5.52109 106.802 5.00613 106.802H4.20533V108.212H5.00613V108.213Z" fill="white"/>
<path d="M7.21997 106.316C7.21997 106.13 7.36578 105.98 7.55556 105.98C7.74535 105.98 7.89695 106.132 7.89695 106.316V109.786C7.89695 109.977 7.74535 110.122 7.55556 110.122C7.36578 110.122 7.21997 109.976 7.21997 109.786V106.316Z" fill="white"/>
<path d="M8.58667 109.243V109.232C8.58667 108.593 9.08543 108.281 9.80754 108.281C10.1373 108.281 10.3734 108.331 10.6026 108.403V108.33C10.6026 107.91 10.3445 107.687 9.86887 107.687C9.61081 107.687 9.39788 107.732 9.21388 107.805C9.17454 107.816 9.14098 107.821 9.10742 107.821C8.9512 107.821 8.82159 107.698 8.82159 107.541C8.82159 107.418 8.90606 107.312 9.00674 107.273C9.28679 107.166 9.57262 107.099 9.95798 107.099C10.4 107.099 10.731 107.217 10.9381 107.43C11.1569 107.643 11.2575 107.957 11.2575 108.343V109.799C11.2575 109.984 11.1117 110.124 10.9266 110.124C10.731 110.124 10.5968 109.99 10.5968 109.838V109.726C10.3954 109.967 10.0876 110.156 9.63396 110.156C9.07965 110.156 8.58667 109.837 8.58667 109.243ZM10.6141 109.03V108.829C10.4405 108.762 10.2114 108.711 9.94178 108.711C9.5055 108.711 9.24744 108.896 9.24744 109.204V109.216C9.24744 109.501 9.49972 109.663 9.82374 109.663C10.2716 109.663 10.613 109.405 10.613 109.03H10.6141Z" fill="white"/>
<path d="M12.1832 109.277V107.72H12.0709C11.9089 107.72 11.7793 107.592 11.7793 107.43C11.7793 107.268 11.9089 107.138 12.0709 107.138H12.1832V106.635C12.1832 106.45 12.3348 106.299 12.5245 106.299C12.7143 106.299 12.8601 106.451 12.8601 106.635V107.138H13.3925C13.5545 107.138 13.6887 107.267 13.6887 107.43C13.6887 107.593 13.5545 107.72 13.3925 107.72H12.8601V109.17C12.8601 109.433 12.9944 109.54 13.2235 109.54C13.3022 109.54 13.3693 109.523 13.3913 109.523C13.5429 109.523 13.6771 109.646 13.6771 109.803C13.6771 109.926 13.5938 110.027 13.4978 110.066C13.352 110.117 13.2119 110.145 13.0326 110.145C12.5338 110.145 12.1809 109.926 12.1809 109.277H12.1832Z" fill="white"/>
<path d="M14.1504 109.243V109.232C14.1504 108.593 14.6492 108.281 15.3713 108.281C15.7011 108.281 15.9371 108.331 16.1663 108.403V108.33C16.1663 107.91 15.9094 107.687 15.4326 107.687C15.1745 107.687 14.9628 107.732 14.7776 107.805C14.7383 107.816 14.7047 107.821 14.6711 107.821C14.5149 107.821 14.3853 107.698 14.3853 107.541C14.3853 107.418 14.4686 107.312 14.5705 107.273C14.8505 107.166 15.1363 107.099 15.5217 107.099C15.9638 107.099 16.2936 107.217 16.5019 107.43C16.7206 107.643 16.8213 107.957 16.8213 108.343V109.799C16.8213 109.984 16.6755 110.124 16.4915 110.124C16.2947 110.124 16.1616 109.99 16.1616 109.838V109.726C15.9603 109.967 15.6525 110.156 15.1988 110.156C14.6445 110.156 14.1515 109.837 14.1515 109.243H14.1504ZM16.1778 109.03V108.829C16.0043 108.762 15.7751 108.711 15.5055 108.711C15.0692 108.711 14.8112 108.896 14.8112 109.204V109.216C14.8112 109.501 15.0634 109.663 15.3875 109.663C15.8353 109.663 16.1767 109.405 16.1767 109.03H16.1778Z" fill="white"/>
<path d="M17.7864 107.72H17.6684C17.5122 107.72 17.3826 107.598 17.3826 107.44C17.3826 107.283 17.511 107.155 17.6684 107.155H17.7864V106.936C17.7864 106.611 17.8698 106.364 18.0271 106.208C18.1845 106.052 18.4032 105.973 18.6937 105.973C18.8279 105.973 18.9402 105.985 19.0351 106.001C19.1577 106.017 19.27 106.129 19.27 106.281C19.27 106.432 19.1415 106.567 18.9842 106.561C18.9448 106.555 18.8893 106.549 18.8441 106.549C18.5861 106.549 18.4518 106.689 18.4518 106.997V107.159H18.9784C19.1404 107.159 19.2642 107.282 19.2642 107.439C19.2642 107.597 19.1358 107.719 18.9784 107.719H18.4634V109.785C18.4634 109.97 18.3118 110.121 18.122 110.121C17.9322 110.121 17.7864 109.969 17.7864 109.785V107.719V107.72Z" fill="white"/>
<path d="M19.5236 108.633V108.622C19.5236 107.776 20.196 107.077 21.1021 107.077C22.0082 107.077 22.6747 107.766 22.6747 108.611V108.623C22.6747 109.463 22.0024 110.163 21.0905 110.163C20.1786 110.163 19.5225 109.475 19.5225 108.635L19.5236 108.633ZM21.9978 108.633V108.622C21.9978 108.101 21.6228 107.671 21.0905 107.671C20.5582 107.671 20.1994 108.097 20.1994 108.611V108.623C20.1994 109.138 20.5744 109.57 21.1009 109.57C21.6274 109.57 21.9966 109.144 21.9966 108.635L21.9978 108.633Z" fill="white"/>
<path d="M23.3665 107.446C23.3665 107.256 23.5123 107.105 23.7021 107.105C23.8918 107.105 24.0434 107.256 24.0434 107.446V107.748C24.1997 107.379 24.4913 107.099 24.7887 107.099C25.0016 107.099 25.1243 107.239 25.1243 107.435C25.1243 107.614 25.0074 107.731 24.8558 107.759C24.3744 107.843 24.0446 108.212 24.0446 108.912V109.786C24.0446 109.971 23.893 110.122 23.7032 110.122C23.5134 110.122 23.3676 109.976 23.3676 109.786V107.446H23.3665Z" fill="white"/>
<path d="M25.6799 107.446C25.6799 107.256 25.8257 107.105 26.0155 107.105C26.2053 107.105 26.3569 107.256 26.3569 107.446V107.586C26.5467 107.324 26.8048 107.077 27.2584 107.077C27.6842 107.077 27.9863 107.284 28.1425 107.598C28.3786 107.284 28.691 107.077 29.1389 107.077C29.7834 107.077 30.1746 107.486 30.1746 108.208V109.786C30.1746 109.977 30.0288 110.122 29.839 110.122C29.6492 110.122 29.4976 109.976 29.4976 109.786V108.415C29.4976 107.945 29.2789 107.693 28.8993 107.693C28.5198 107.693 28.2663 107.951 28.2663 108.426V109.786C28.2663 109.977 28.1159 110.122 27.9307 110.122C27.7456 110.122 27.5893 109.976 27.5893 109.786V108.409C27.5893 107.95 27.3648 107.693 26.9899 107.693C26.615 107.693 26.3581 107.973 26.3581 108.426V109.786C26.3581 109.977 26.2065 110.122 26.0167 110.122C25.8269 110.122 25.6811 109.976 25.6811 109.786V107.446H25.6799Z" fill="white"/>
<path d="M30.8076 109.243V109.232C30.8076 108.593 31.3064 108.281 32.0285 108.281C32.3583 108.281 32.5944 108.331 32.8235 108.403V108.33C32.8235 107.91 32.5666 107.687 32.0898 107.687C31.8318 107.687 31.62 107.732 31.4348 107.805C31.3955 107.816 31.3619 107.821 31.3284 107.821C31.1721 107.821 31.0425 107.698 31.0425 107.541C31.0425 107.418 31.1259 107.312 31.2277 107.273C31.5077 107.166 31.7936 107.099 32.1789 107.099C32.621 107.099 32.9508 107.217 33.1591 107.43C33.3778 107.643 33.4785 107.957 33.4785 108.343V109.799C33.4785 109.984 33.3327 110.124 33.1487 110.124C32.9519 110.124 32.8189 109.99 32.8189 109.838V109.726C32.6175 109.967 32.3097 110.156 31.8561 110.156C31.3018 110.156 30.8088 109.837 30.8088 109.243H30.8076ZM32.8339 109.03V108.829C32.6603 108.762 32.4312 108.711 32.1616 108.711C31.7253 108.711 31.4672 108.896 31.4672 109.204V109.216C31.4672 109.501 31.7195 109.663 32.0435 109.663C32.4914 109.663 32.8328 109.405 32.8328 109.03H32.8339Z" fill="white"/>
<path d="M36.0508 106.489C36.0508 106.299 36.2024 106.148 36.3979 106.148C36.5935 106.148 36.7393 106.299 36.7393 106.489V107.805H38.6094V106.489C38.6094 106.299 38.7598 106.148 38.9508 106.148C39.1417 106.148 39.2979 106.299 39.2979 106.489V109.781C39.2979 109.971 39.1464 110.123 38.9508 110.123C38.7552 110.123 38.6094 109.971 38.6094 109.781V108.444H36.7393V109.781C36.7393 109.971 36.5877 110.123 36.3979 110.123C36.2082 110.123 36.0508 109.971 36.0508 109.781V106.489Z" fill="white"/>
<path d="M42.8566 109.786C42.8566 109.971 42.705 110.122 42.5152 110.122C42.3254 110.122 42.1738 109.976 42.1738 109.786V109.634C41.984 109.915 41.7086 110.155 41.2503 110.155C40.5838 110.155 40.1973 109.707 40.1973 109.019V107.446C40.1973 107.256 40.3489 107.105 40.5329 107.105C40.7169 107.105 40.8742 107.256 40.8742 107.446V108.817C40.8742 109.277 41.1034 109.534 41.5061 109.534C41.9088 109.534 42.1726 109.265 42.1726 108.806V107.445C42.1726 107.255 42.3242 107.104 42.514 107.104C42.7038 107.104 42.8554 107.255 42.8554 107.445V109.785L42.8566 109.786Z" fill="white"/>
<path d="M43.8772 110.738C43.7604 110.693 43.6875 110.598 43.6875 110.47C43.6875 110.318 43.8159 110.19 43.9733 110.19C44.0231 110.19 44.0624 110.202 44.096 110.218C44.3656 110.369 44.6618 110.453 45.0032 110.453C45.6084 110.453 45.9383 110.139 45.9383 109.545V109.316C45.6918 109.636 45.3839 109.859 44.8968 109.859C44.2024 109.859 43.5532 109.344 43.5532 108.476V108.465C43.5532 107.591 44.2082 107.076 44.8968 107.076C45.3955 107.076 45.7033 107.305 45.9325 107.579V107.439C45.9325 107.255 46.0841 107.104 46.2681 107.104C46.4521 107.104 46.6094 107.255 46.6094 107.445V109.489C46.6094 109.987 46.481 110.357 46.2345 110.603C45.9649 110.872 45.5517 111 45.0194 111C44.6051 111 44.2348 110.911 43.8772 110.737V110.738ZM45.9429 108.471V108.46C45.9429 107.978 45.546 107.649 45.075 107.649C44.604 107.649 44.2348 107.974 44.2348 108.46V108.471C44.2348 108.953 44.6109 109.283 45.075 109.283C45.539 109.283 45.9429 108.952 45.9429 108.471Z" fill="white"/>
<path d="M49.2224 106.523C49.2224 106.327 49.374 106.176 49.5696 106.176H50.684C51.9153 106.176 52.767 107.02 52.767 108.124V108.136C52.767 109.239 51.9153 110.095 50.684 110.095H49.5696C49.3729 110.095 49.2224 109.943 49.2224 109.748V106.523ZM50.6828 109.468C51.5056 109.468 52.0426 108.914 52.0426 108.146V108.135C52.0426 107.367 51.5056 106.803 50.6828 106.803H49.911V109.468H50.6828Z" fill="white"/>
<path d="M53.5144 106.343C53.5144 106.142 53.6822 106.014 53.8998 106.014C54.1173 106.014 54.2863 106.142 54.2863 106.343V106.377C54.2863 106.578 54.1185 106.712 53.8998 106.712C53.681 106.712 53.5144 106.578 53.5144 106.377V106.343ZM53.5642 107.446C53.5642 107.256 53.71 107.105 53.8998 107.105C54.0895 107.105 54.2411 107.256 54.2411 107.446V109.786C54.2411 109.977 54.0907 110.122 53.8998 110.122C53.7088 110.122 53.5642 109.976 53.5642 109.786V107.446Z" fill="white"/>
<path d="M55.3013 110.738C55.1844 110.693 55.1115 110.598 55.1115 110.47C55.1115 110.318 55.24 110.19 55.3974 110.19C55.4471 110.19 55.4865 110.202 55.52 110.218C55.7897 110.369 56.0859 110.453 56.4273 110.453C57.0325 110.453 57.3623 110.139 57.3623 109.545V109.316C57.1158 109.636 56.808 109.859 56.3208 109.859C55.6265 109.859 54.9773 109.344 54.9773 108.476V108.465C54.9773 107.591 55.6323 107.076 56.3208 107.076C56.8196 107.076 57.1274 107.305 57.3565 107.579V107.439C57.3565 107.255 57.5081 107.104 57.6921 107.104C57.8761 107.104 58.0335 107.255 58.0335 107.445V109.489C58.0335 109.987 57.9051 110.357 57.6586 110.603C57.389 110.872 56.9758 111 56.4435 111C56.0292 111 55.6589 110.911 55.3013 110.737V110.738ZM57.367 108.471V108.46C57.367 107.978 56.97 107.649 56.499 107.649C56.0281 107.649 55.6589 107.974 55.6589 108.46V108.471C55.6589 108.953 56.035 109.283 56.499 109.283C56.9631 109.283 57.367 108.952 57.367 108.471Z" fill="white"/>
<path d="M58.8757 106.343C58.8757 106.142 59.0435 106.014 59.2611 106.014C59.4786 106.014 59.6476 106.142 59.6476 106.343V106.377C59.6476 106.578 59.4798 106.712 59.2611 106.712C59.0424 106.712 58.8757 106.578 58.8757 106.377V106.343ZM58.9255 107.446C58.9255 107.256 59.0713 107.105 59.2611 107.105C59.4509 107.105 59.6025 107.256 59.6025 107.446V109.786C59.6025 109.977 59.452 110.122 59.2611 110.122C59.0701 110.122 58.9255 109.976 58.9255 109.786V107.446Z" fill="white"/>
<path d="M60.628 109.277V107.72H60.5157C60.3537 107.72 60.2241 107.592 60.2241 107.43C60.2241 107.268 60.3537 107.138 60.5157 107.138H60.628V106.635C60.628 106.45 60.7796 106.299 60.9694 106.299C61.1592 106.299 61.305 106.451 61.305 106.635V107.138H61.8373C61.9993 107.138 62.1335 107.267 62.1335 107.43C62.1335 107.593 61.9993 107.72 61.8373 107.72H61.305V109.17C61.305 109.433 61.4392 109.54 61.6683 109.54C61.747 109.54 61.8141 109.523 61.8361 109.523C61.9877 109.523 62.122 109.646 62.122 109.803C62.122 109.926 62.0386 110.027 61.9426 110.066C61.7968 110.117 61.6568 110.145 61.4774 110.145C60.9786 110.145 60.6257 109.926 60.6257 109.277H60.628Z" fill="white"/>
<path d="M62.5952 109.243V109.232C62.5952 108.593 63.094 108.281 63.8161 108.281C64.1459 108.281 64.382 108.331 64.6111 108.403V108.33C64.6111 107.91 64.3542 107.687 63.8774 107.687C63.6205 107.687 63.4076 107.732 63.2224 107.805C63.1831 107.816 63.1495 107.821 63.116 107.821C62.9597 107.821 62.8301 107.698 62.8301 107.541C62.8301 107.418 62.9135 107.312 63.0153 107.273C63.2953 107.166 63.5812 107.099 63.9665 107.099C64.4086 107.099 64.7384 107.217 64.9467 107.43C65.1654 107.643 65.2661 107.957 65.2661 108.343V109.799C65.2661 109.984 65.1203 110.124 64.9363 110.124C64.7395 110.124 64.6065 109.99 64.6065 109.838V109.726C64.4051 109.967 64.0973 110.156 63.6437 110.156C63.0893 110.156 62.5964 109.837 62.5964 109.243H62.5952ZM64.6227 109.03V108.829C64.4491 108.762 64.22 108.711 63.9503 108.711C63.5141 108.711 63.256 108.896 63.256 109.204V109.216C63.256 109.501 63.5083 109.663 63.8323 109.663C64.2801 109.663 64.6215 109.405 64.6215 109.03H64.6227Z" fill="white"/>
<path d="M66.1189 106.316C66.1189 106.13 66.2647 105.98 66.4545 105.98C66.6443 105.98 66.7959 106.132 66.7959 106.316V109.786C66.7959 109.977 66.6454 110.122 66.4545 110.122C66.2635 110.122 66.1189 109.976 66.1189 109.786V106.316Z" fill="white"/>
<path d="M35.1034 11.1199C37.6465 10.7701 39.3853 8.13912 38.9871 5.24331C38.5888 2.34751 36.2044 0.283502 33.6613 0.63322C31.1182 0.982939 29.3795 3.61395 29.7777 6.50976C30.1759 9.40556 32.5603 11.4696 35.1034 11.1199Z" fill="#E1531A"/>
<path d="M7.47457 62.2681C10.0177 61.9183 11.7703 59.3882 11.3892 56.6168C11.0081 53.8454 8.63754 51.8823 6.09444 52.232C3.55134 52.5817 1.7987 55.1119 2.17981 57.8832C2.56092 60.6546 4.93146 62.6178 7.47457 62.2681Z" fill="#3995D2"/>
<path d="M52.1833 64.792C52.4206 62.2579 50.8907 60.0424 48.7662 59.8434C46.6417 59.6445 44.7271 61.5375 44.4897 64.0715C44.2524 66.6056 45.7823 68.8211 47.9069 69.0201C50.0314 69.219 51.946 67.3261 52.1833 64.792Z" fill="#00B0AE"/>
<path d="M66.1942 33.4974C68.2393 33.4974 69.8972 31.6173 69.8972 29.2979C69.8972 26.9786 68.2393 25.0984 66.1942 25.0984C64.1491 25.0984 62.4912 26.9786 62.4912 29.2979C62.4912 31.6173 64.1491 33.4974 66.1942 33.4974Z" fill="#BB880D"/>
<path d="M40.3609 41.3645C40.292 39.4139 40.0584 37.4904 39.5201 35.8361C36.1655 26.6756 26.3855 39.829 24.0448 43.943C22.8369 45.9082 21.5414 48.4158 20.4315 51.1424C16.62 50.7064 12.9191 49.461 9.79611 47.3164C3.137 42.9082 -0.490881 34.6532 0.0536138 26.6381C0.276836 18.3434 4.77466 9.37693 13.3906 7.85192C23.7736 6.27268 32.7046 16.036 36.3032 24.9441C37.6154 28.0316 38.6982 31.4509 39.5452 34.9849C40.0354 37.0627 40.5194 39.2365 40.3609 41.3645Z" fill="#5CADE0"/>
<path d="M40.3608 41.3644C40.342 41.6127 40.3169 41.8547 40.2815 42.0967L40.271 42.1864C39.6973 46.4026 35.5458 48.9957 31.5904 50.1744C28.0773 51.2279 24.2011 51.5847 20.4314 51.1445C21.5392 48.4179 22.8368 45.9082 24.0447 43.9451C26.3854 39.8332 36.1633 26.6798 39.52 35.8381C40.0603 37.4904 40.2919 39.4159 40.3608 41.3665V41.3644Z" fill="#16887D"/>
<path d="M40.2857 46.413C39.3803 59.6457 35.9402 73.7838 25.2506 73.1121L25.1713 73.0975C15.2494 70.9591 16.8474 59.9336 20.4294 51.1445C24.2012 51.5847 28.0753 51.228 31.5884 50.1744C35.5418 48.9957 39.6954 46.4026 40.2691 42.1864L40.2795 42.0967C40.315 41.8547 40.3379 41.6127 40.3588 41.3644C40.4234 43.0814 40.3629 44.8129 40.2837 46.413H40.2857Z" fill="#90C040"/>
<path d="M57.0274 28.7868L56.9898 28.9016C56.5288 30.0636 55.6463 31.7409 54.524 33.4974C54.3425 33.4015 54.1589 33.3159 53.9774 33.2283C53.5268 33.0364 53.0657 32.8549 52.6339 32.6525C46.0123 29.5817 40.7071 29.9071 42.1654 36.6538C40.3525 29.1123 40.2085 17.463 42.9623 11.4172C45.6013 4.95838 53.5268 1.42855 57.8639 8.31714C61.4522 14.3713 59.7457 22.4031 57.0295 28.7847L57.0274 28.7868Z" fill="#EC6C1D"/>
<path d="M54.522 33.4974C51.9601 37.4988 48.132 41.8547 45.2051 41.0202C45.1279 41.0015 45.0423 40.9723 44.9651 40.9431C44.8024 40.8846 44.648 40.8095 44.4958 40.7031C44.4186 40.6656 44.3518 40.6176 44.2851 40.5592C43.6905 40.1274 43.1439 39.4076 42.6829 38.3624C42.6641 38.3249 42.6537 38.2957 42.6453 38.256C42.5201 37.9681 42.4242 37.6615 42.347 37.3632C42.2802 37.1337 42.2218 36.8938 42.1655 36.6539C40.7072 29.9071 46.0124 29.5817 52.634 32.6525C53.0658 32.8549 53.5269 33.0364 53.9775 33.2283C54.159 33.3139 54.3426 33.4015 54.5241 33.4974H54.522Z" fill="#E1531A"/>
<path d="M42.6432 38.256C42.5847 38.1309 42.5284 37.9974 42.4804 37.8618C42.4325 37.699 42.3949 37.5363 42.3469 37.3632C42.4241 37.6615 42.5201 37.9681 42.6452 38.256H42.6432Z" fill="#E1531A"/>
<path d="M59.656 52.8802L59.5788 52.9178C52.5359 57.207 44.5416 47.9193 42.6432 39.4556C42.3657 38.4104 42.2113 37.4779 42.1633 36.6538C42.2217 36.8938 42.2781 37.1337 42.3448 37.3632C42.422 37.6615 42.518 37.9681 42.6432 38.256C42.6536 38.2936 42.6619 38.3228 42.6807 38.3624C43.1418 39.4076 43.6883 40.1274 44.2829 40.5592C44.3497 40.6176 44.4164 40.6656 44.4936 40.7031C44.648 40.8095 44.8003 40.8846 44.963 40.9431C45.0402 40.9723 45.1257 41.0015 45.2029 41.0202C48.1298 41.8547 51.958 37.4988 54.5198 33.4974C61.7547 37.2776 67.7901 46.7781 59.6539 52.8802H59.656Z" fill="#FBBF09"/>
</svg>
