<svg xmlns="http://www.w3.org/2000/svg" width="23" height="23" viewBox="0 0 23 23" fill="none">
  <path d="M18.6276 12.1072C18.6276 16.7637 15.368 19.092 11.4937 20.4424C11.2908 20.5111 11.0705 20.5079 10.8697 20.4331C6.98615 19.092 3.72656 16.7637 3.72656 12.1072V5.58797C3.72656 5.34097 3.82468 5.10409 3.99934 4.92943C4.17399 4.75478 4.41088 4.65666 4.65787 4.65666C6.5205 4.65666 8.84878 3.53908 10.4693 2.12349C10.6666 1.95492 10.9176 1.8623 11.1771 1.8623C11.4366 1.8623 11.6876 1.95492 11.8849 2.12349C13.5147 3.5484 15.8336 4.65666 17.6962 4.65666C17.9432 4.65666 18.1801 4.75478 18.3548 4.92943C18.5294 5.10409 18.6276 5.34097 18.6276 5.58797V12.1072Z" stroke="#F8C630" stroke-width="1.86262" stroke-linecap="round" stroke-linejoin="round"/>
</svg>